<svg width="40" height="40" viewBox="0 0 40 40" fill="none" xmlns="http://www.w3.org/2000/svg">
<path d="M9.62009 28.6499C9.79393 26.2162 9.88085 24.9994 10.6365 24.3241C10.6611 24.3022 10.683 24.2833 10.7084 24.2623C11.4891 23.6162 12.7581 23.7165 15.2961 23.9172C16.7053 24.0286 18.2387 24.1113 19.6869 24.1113C21.3009 24.1113 23.1034 24.0086 24.7443 23.8779C27.2633 23.6772 28.5228 23.5769 29.3092 24.242C29.3196 24.2508 29.329 24.2589 29.3393 24.2678C30.115 24.9454 30.2021 26.1652 30.3764 28.605V28.605C30.5892 31.5845 30.6956 33.0742 29.8236 34.0263C29.8125 34.0385 29.8012 34.0506 29.7899 34.0626C28.9023 35.0002 27.4088 35.0002 24.4217 35.0002H19.6869H15.5329C12.5895 35.0002 11.1177 35.0002 10.2336 34.0874C10.2061 34.0591 10.1793 34.0302 10.1529 34.0008C9.30552 33.0539 9.41038 31.5859 9.62009 28.6499V28.6499Z" stroke="#3ACEBC" stroke-width="1.4"/>
<path d="M14.1665 10.6668C14.1665 8.45761 15.9574 6.66675 18.1665 6.66675H21.8332C24.0423 6.66675 25.8332 8.45761 25.8332 10.6667V14.3334C25.8332 16.5426 24.0423 18.3334 21.8332 18.3334H20.8332H19.1665H18.1665C15.9574 18.3334 14.1665 16.5426 14.1665 14.3334V10.6668Z" stroke="#3ACEBC" stroke-width="1.4"/>
<path d="M34.1665 23.3335C34.1665 23.3335 36.6665 24.3629 36.6665 27.5002C36.6665 30.6375 34.1665 31.6668 34.1665 31.6668" stroke="#3ACEBC" stroke-width="1.4" stroke-linecap="round" stroke-linejoin="round"/>
<path d="M5.83325 23.3335C5.83325 23.3335 3.33325 24.1668 3.33325 27.5002C3.33325 30.8335 5.83325 31.6668 5.83325 31.6668" stroke="#3ACEBC" stroke-width="1.4" stroke-linecap="round" stroke-linejoin="round"/>
<path d="M30 7.5C30 7.5 33.3333 8.19092 33.3333 11.6667C33.3333 15.1424 30 15.8333 30 15.8333" stroke="#3ACEBC" stroke-width="1.4" stroke-linecap="round" stroke-linejoin="round"/>
<path d="M10 7.5C10 7.5 6.66667 8.05706 6.66667 11.6667C6.66667 15.2763 10 15.8333 10 15.8333" stroke="#3ACEBC" stroke-width="1.4" stroke-linecap="round" stroke-linejoin="round"/>
</svg>
