<svg width="26" height="26" viewBox="0 0 26 26" fill="none" xmlns="http://www.w3.org/2000/svg">
<path d="M14.0624 25.6636C13.2721 25.6636 12.4937 25.6636 11.7034 25.6636C11.6091 25.6293 11.5265 25.5837 11.4321 25.5722C4.94491 24.7845 0.144355 19.6359 0.00281538 13.2887C-0.115134 7.75191 3.48233 2.84304 8.90801 1.08498C9.98135 0.742502 11.0783 0.616926 12.1752 0.422853C12.8003 0.422853 13.4373 0.422853 14.0624 0.422853C14.3101 0.582677 14.5932 0.514182 14.8645 0.548431C21.2573 1.48454 25.9281 6.66739 25.9989 12.9233C26.0697 18.2889 22.6727 23.0379 17.483 24.8873C16.3742 25.2868 15.2183 25.4467 14.0624 25.6636ZM9.96956 9.23599C10.229 9.27023 10.2998 9.41864 10.3942 9.5328C11.9983 11.2566 13.6142 12.9804 15.2065 14.7042C15.4778 15.0011 15.7609 15.1837 16.1973 15.1951C16.964 15.2065 17.7189 15.3093 18.4855 15.3549C18.6271 15.3664 18.8394 15.4577 18.9219 15.2979C19.0045 15.138 18.8748 14.9668 18.7568 14.8412C18.344 14.4074 17.9312 13.9736 17.4947 13.5626C17.2117 13.3115 17.1763 13.1288 17.4358 12.8092C18.1317 11.9416 18.804 11.0511 19.4645 10.1493C19.9245 9.52139 19.7594 9.06475 18.9691 8.89351C15.6311 8.19713 12.305 7.51218 8.95519 6.83863C8.61314 6.77014 8.2357 6.71306 7.96441 7.02129C7.68134 7.34093 7.84646 7.672 7.97621 7.99165C8.75468 9.94378 9.52135 11.8845 10.2998 13.8366C11.0901 15.8458 11.8803 17.8436 12.6942 19.8414C12.8121 20.1268 12.9065 20.5264 13.3193 20.5036C13.6968 20.4807 13.7322 20.0926 13.8265 19.8186C14.0978 19.0195 14.3337 18.2204 14.6168 17.4327C14.7347 17.0902 14.7229 16.8048 14.4988 16.4851C13.0716 14.3275 11.668 12.1471 10.2644 9.97803C10.1229 9.76112 9.92238 9.56705 9.96956 9.23599Z" fill="white"/>
</svg>
