<svg width="22" height="31" viewBox="0 0 22 31" fill="none" xmlns="http://www.w3.org/2000/svg">
<path d="M-1.11152e-06 2.64996C0.0980509 2.74119 0.167264 2.80392 0.236477 2.87234C3.78942 6.38471 7.32506 9.91418 10.9011 13.4094C12.1238 14.6068 12.0892 16.6595 10.9126 17.817C7.3193 21.3408 3.74328 24.8874 0.161497 28.4226C0.121123 28.4625 0.0807487 28.4967 0 28.5708C-3.70914e-07 19.921 -7.40117e-07 11.3111 -1.11152e-06 2.64996Z" fill="white"/>
<path d="M21.3233 28.5989C21.0061 28.2853 20.7292 28.0059 20.4524 27.7322C17.8396 25.1435 15.2268 22.5492 12.6082 19.9662C12.4352 19.7952 12.3948 19.6982 12.5909 19.5044C13.7964 18.307 14.3674 16.8587 14.2405 15.171C14.1424 13.8481 13.5887 12.7249 12.6313 11.7954C12.3602 11.5275 12.3602 11.5275 12.6255 11.2652C15.4344 8.47696 18.2376 5.68874 21.0465 2.89482C21.1272 2.81499 21.1907 2.71806 21.2656 2.62683C21.283 2.63823 21.306 2.64964 21.3233 2.66104C21.3233 11.2937 21.3233 19.9149 21.3233 28.5989Z" fill="white"/>
<path d="M19.5759 30.2129C13.6408 30.2129 7.70579 30.2129 1.77075 30.2129C1.77075 30.0817 1.8688 30.0418 1.93225 29.9791C4.77576 27.1738 7.61927 24.3685 10.457 21.5574C10.6012 21.4149 10.682 21.3636 10.8608 21.5403C13.7158 24.3742 16.5766 27.1966 19.4374 30.0304C19.4893 30.076 19.5643 30.116 19.5759 30.2129Z" fill="white"/>
<path d="M1.76489 0.933595C7.7057 0.933594 13.635 0.933594 19.5758 0.933594C19.5469 1.05333 19.4546 1.09895 19.3912 1.16737C16.5535 3.96702 13.7157 6.76667 10.8895 9.57202C10.7107 9.74878 10.6242 9.74878 10.4454 9.57202C7.61918 6.76667 4.78144 3.96702 1.94946 1.16167C1.88602 1.09895 1.7995 1.04763 1.76489 0.933595Z" fill="white"/>
</svg>
