<svg width="35" height="35" viewBox="0 0 35 35" fill="none" xmlns="http://www.w3.org/2000/svg">
<path d="M10.5996 21.0132L8.58658 13.5004M10.5996 21.0132L7.31278 21.8939M10.5996 21.0132L12.5756 21.2296M8.58658 13.5004L2.97884 15.003C2.44537 15.1459 2.12879 15.6943 2.27173 16.2277L3.76713 21.8086C3.91007 22.3421 4.45841 22.6587 4.99188 22.5157L7.31278 21.8939M8.58658 13.5004L18.4179 4.7047C19.7306 3.53031 21.3096 2.69336 23.0183 2.26621V2.26621C23.1944 2.22219 23.3739 2.32473 23.4254 2.49877L29.0531 21.5104C29.1159 21.7225 28.9955 21.9455 28.7838 22.0094V22.0094C27.112 22.5142 25.3551 22.6735 23.6198 22.4774L12.5756 21.2296M7.31278 21.8939L10.8939 30.1178C11.0915 30.5716 11.5914 30.8126 12.0696 30.6845L14.8464 29.9404C15.4248 29.7854 15.7382 29.1603 15.5164 28.6041L12.5756 21.2296" stroke="#3ACEBC" stroke-width="1.4" stroke-linecap="round" stroke-linejoin="round"/>
<path d="M26.063 9.70312C26.063 9.70312 28.9949 9.09844 29.718 11.7973C30.4412 14.4961 27.5998 15.4384 27.5998 15.4384" stroke="#3ACEBC" stroke-width="1.4" stroke-linecap="round" stroke-linejoin="round"/>
</svg>
