<svg width="41" height="40" viewBox="0 0 41 40" fill="none" xmlns="http://www.w3.org/2000/svg">
<path d="M35.2153 25.3773C35.2153 26.3954 36.4443 26.2501 36.4443 26.2501L36.4443 13.0142C36.4443 13.0142 35.9168 12.9519 35.5529 13.1947C35.3616 13.3232 35.2153 13.5362 35.2153 13.887C35.2153 14.8324 34.7818 15.0504 34.3478 15.0504L29.2881 14.9777C27.5531 14.9777 26.3964 15.5599 25.8181 16.2872C25.3844 12.1414 23.7939 7.77836 16.7092 7.77836C14.6857 7.77836 13.023 8.50586 11.7218 9.6692C11.288 9.4512 9.4084 8.8692 6.87815 9.8872C6.87815 9.8872 6.74731 10.2829 6.93237 11.1409C7.11166 11.9689 7.5859 13.2279 8.75776 14.9777C7.89025 18.032 7.89025 21.2324 8.75776 24.2866C6.37211 27.8495 6.87815 29.377 6.87815 29.377C9.4084 30.3951 11.288 29.813 11.7218 29.595C13.023 30.7584 14.6857 31.4859 16.7092 31.4859C23.7939 31.4858 25.3844 27.1955 25.8181 23.0505C26.3241 23.5591 27.1194 24.0686 28.3483 24.2139C28.7821 25.3046 29.5765 27.9956 26.7579 29.595C26.7579 29.595 25.0227 30.6131 24.8784 32.5039C24.8784 32.5039 24.8784 34.3221 26.0349 32.5766C26.0349 32.5766 26.2049 32.1861 26.7693 31.6877C27.1793 31.3258 27.7976 30.9074 28.7098 30.5404C28.7098 30.5404 31.8899 29.4497 30.7334 24.2866L34.3478 24.2139C34.7818 24.2139 35.2153 24.4319 35.2153 25.3773Z" fill="#F5F5F5"/>
</svg>
