<svg width="53" height="53" viewBox="0 0 53 53" fill="none" xmlns="http://www.w3.org/2000/svg">
<path d="M19.3751 45.5223C18.0261 45.5223 18.2187 47.111 18.2187 47.111H35.7562C35.7562 47.111 35.8388 46.429 35.5171 45.9587C35.3468 45.7113 35.0646 45.5223 34.5997 45.5223C33.3472 45.5223 33.0583 44.9618 33.0583 44.4009L33.1546 37.8603C33.1546 35.6175 32.3832 34.1222 31.4195 33.3747C36.9127 32.814 42.6937 30.758 42.6937 21.5997C42.6937 18.984 41.7298 16.8347 40.1884 15.1526C40.4772 14.5918 41.2484 12.1621 39.8995 8.89129C39.8995 8.89129 39.3752 8.72216 38.2384 8.96139C37.1413 9.19315 35.4731 9.80618 33.1546 11.321C29.1076 10.1996 24.8672 10.1996 20.8203 11.321C16.0995 8.23714 14.0755 8.89129 14.0755 8.89129C12.7266 12.1621 13.4978 14.5918 13.7867 15.1526C12.2451 16.8347 11.2813 18.984 11.2813 21.5997C11.2813 30.758 16.966 32.814 22.4581 33.3747C21.7842 34.0288 21.1092 35.0568 20.9166 36.6454C19.4714 37.2061 15.9059 38.233 13.7867 34.5895C13.7867 34.5895 12.4377 32.3465 9.93234 32.1599C9.93234 32.1599 7.52325 32.1599 9.83605 33.6549C9.83605 33.6549 10.3535 33.8747 11.0138 34.6043C11.4933 35.1343 12.0477 35.9335 12.534 37.1127C12.534 37.1127 13.9792 41.2235 20.8203 39.7285L20.9166 44.4009C20.9166 44.9618 20.6278 45.5223 19.3751 45.5223Z" fill="#F5F5F5"/>
</svg>
