<svg width="31" height="27" viewBox="0 0 31 27" fill="none" xmlns="http://www.w3.org/2000/svg">
<path d="M29.2153 18.3773C29.2153 19.3954 30.4443 19.2501 30.4443 19.2501L30.4443 6.0142C30.4443 6.0142 29.9168 5.95186 29.5529 6.1947C29.3616 6.3232 29.2153 6.5362 29.2153 6.88703C29.2153 7.83236 28.7818 8.05036 28.3478 8.05036L23.2881 7.9777C21.5531 7.9777 20.3964 8.55987 19.8181 9.2872C19.3844 5.14136 17.7939 0.778363 10.7092 0.778364C8.68575 0.778364 7.02303 1.50586 5.72177 2.6692C5.28801 2.4512 3.4084 1.8692 0.87815 2.8872C0.87815 2.8872 0.747309 3.28286 0.932373 4.14087C1.11166 4.96886 1.5859 6.22787 2.75776 7.9777C1.89025 11.032 1.89025 14.2324 2.75776 17.2866C0.372109 20.8495 0.878151 22.377 0.878151 22.377C3.4084 23.3951 5.28801 22.813 5.72177 22.595C7.02303 23.7584 8.68575 24.4859 10.7092 24.4859C17.7939 24.4858 19.3844 20.1955 19.8181 16.0505C20.3241 16.5591 21.1194 17.0686 22.3483 17.2139C22.7821 18.3046 23.5765 20.9956 20.7579 22.595C20.7579 22.595 19.0227 23.6131 18.8784 25.5039C18.8784 25.5039 18.8784 27.3221 20.0349 25.5766C20.0349 25.5766 20.2049 25.1861 20.7693 24.6877C21.1793 24.3258 21.7976 23.9074 22.7098 23.5404C22.7098 23.5404 25.8899 22.4497 24.7334 17.2866L28.3478 17.2139C28.7818 17.2139 29.2153 17.4319 29.2153 18.3773Z" fill="#F5F5F5"/>
</svg>
