<svg width="27" height="32" viewBox="0 0 27 32" fill="none" xmlns="http://www.w3.org/2000/svg">
<path d="M8.62268 29.7805C7.60458 29.7805 7.74993 31.0641 7.74993 31.0641L20.9858 31.0641C20.9858 31.0641 21.0481 30.5131 20.8053 30.1331C20.6768 29.9333 20.4638 29.7805 20.113 29.7805C19.1676 29.7805 18.9496 29.3277 18.9496 28.8745L19.0223 23.5899C19.0223 21.7778 18.4401 20.5696 17.7128 19.9657C21.8586 19.5126 26.2216 17.8515 26.2216 10.4519C26.2216 8.33847 25.4941 6.60185 24.3308 5.24276C24.5488 4.78972 25.1308 2.82656 24.1128 0.183858C24.1128 0.183858 23.7171 0.0472012 22.8591 0.24049C22.0311 0.427749 20.7721 0.92306 19.0223 2.14701C15.968 1.24094 12.7676 1.24094 9.71343 2.14701C6.1505 -0.344676 4.623 0.183858 4.623 0.183858C3.60492 2.82656 4.187 4.78972 4.40498 5.24276C3.24157 6.60185 2.51415 8.33847 2.51415 10.4519C2.51415 17.8515 6.80452 19.5126 10.9495 19.9657C10.4408 20.4942 9.93143 21.3247 9.7861 22.6083C8.69535 23.0614 6.00443 23.891 4.40498 20.9472C4.40498 20.9472 3.38692 19.1349 1.49607 18.9841C1.49607 18.9841 -0.322118 18.9841 1.4234 20.1921C1.4234 20.1921 1.8139 20.3696 2.3123 20.9591C2.67418 21.3874 3.09257 22.0331 3.45958 22.9859C3.45958 22.9859 4.55032 26.3073 9.71343 25.0993L9.7861 28.8745C9.7861 29.3277 9.56812 29.7805 8.62268 29.7805Z" fill="#F5F5F5"/>
</svg>
