<svg width="72" height="73" viewBox="0 0 72 73" fill="none" xmlns="http://www.w3.org/2000/svg">
<path d="M41.6117 49.0456C41.4336 48.6868 41.2943 48.31 41.1962 47.9216C41.0752 47.4795 40.9774 47.0313 40.9031 46.579C40.5103 47.0025 40.0767 47.3861 39.6086 47.7244C39.11 48.0933 38.5743 48.4093 38.0103 48.6674C37.3705 48.9475 36.7026 49.1583 36.0179 49.296C35.2559 49.4564 34.479 49.5349 33.7004 49.5304C32.4335 49.5433 31.1732 49.3452 29.9712 48.9444C28.9041 48.5883 27.915 48.0313 27.0571 47.3036C26.2354 46.6083 25.5774 45.7402 25.1298 44.7613C24.6823 43.7824 24.4563 42.7168 24.468 41.6405C24.468 38.8596 25.505 36.709 27.5792 35.1889C29.6533 33.6688 32.7504 32.907 36.8703 32.9035H40.6528V31.3479C40.6794 30.7845 40.5815 30.2222 40.366 29.701C40.1506 29.1798 39.8228 28.7126 39.4061 28.3325C38.5804 27.592 37.3817 27.2244 35.8208 27.2244C34.4356 27.2244 33.4287 27.5174 32.7948 28.1141C32.4743 28.4194 32.2232 28.79 32.0587 29.2009C31.8941 29.6118 31.8199 30.0533 31.8412 30.4955H25.0593C25.058 29.3867 25.3133 28.2927 25.8051 27.299C26.3225 26.2605 27.0651 25.3504 27.9788 24.6353C29.021 23.8214 30.2037 23.2056 31.4682 22.8186C32.9954 22.3411 34.5884 22.1074 36.1884 22.126C37.6946 22.1147 39.1952 22.3119 40.6474 22.7121C41.937 23.0626 43.1495 23.6517 44.2221 24.4488C45.2413 25.2125 46.0617 26.2102 46.6142 27.3576C47.2071 28.6197 47.5007 30.0017 47.4719 31.3958V42.722C47.4535 43.8997 47.5427 45.0766 47.7383 46.2381C47.8867 47.068 48.1503 47.8731 48.5214 48.6301V49.0456H41.6117ZM35.1388 44.2829C35.7753 44.2865 36.4094 44.2059 37.0248 44.0432C37.5803 43.8922 38.1166 43.6777 38.623 43.4039C39.0689 43.1653 39.4795 42.8659 39.843 42.5142C40.1566 42.2156 40.4274 41.875 40.6474 41.502V36.963H37.1899C36.2784 36.946 35.3686 37.0481 34.4836 37.2667C33.8238 37.4256 33.2014 37.7115 32.6509 38.1084C32.1906 38.4524 31.8241 38.9068 31.5854 39.4296C31.3542 39.9566 31.2379 40.5269 31.2445 41.1024C31.2346 41.5311 31.3176 41.9568 31.4877 42.3504C31.6578 42.7439 31.9111 43.0961 32.2301 43.3826C32.8729 43.9863 33.8425 44.2865 35.1388 44.2829Z" fill="white"/>
<path d="M36.1296 69.4072C54.2835 69.4072 69 54.6907 69 36.5369C69 18.3831 54.2835 3.6665 36.1296 3.6665C17.9758 3.6665 3.25928 18.3831 3.25928 36.5369C3.25928 54.6907 17.9758 69.4072 36.1296 69.4072Z" stroke="white" stroke-width="6" stroke-miterlimit="10"/>
</svg>
