<svg width="44" height="32" viewBox="0 0 44 32" fill="none" xmlns="http://www.w3.org/2000/svg">
<path d="M41.4208 0C41.2837 0.147146 41.1895 0.251014 41.0867 0.354882C35.8084 5.68677 30.5044 10.9927 25.2518 16.3592C23.4524 18.1942 20.3677 18.1423 18.6282 16.3765C13.3328 10.984 8.00312 5.61752 2.69056 0.242358C2.63058 0.181769 2.57917 0.121179 2.46777 0C15.4664 0 28.4051 0 41.4208 0Z" fill="white"/>
<path d="M2.4248 32C2.89608 31.5239 3.31594 31.1084 3.72724 30.693C7.61741 26.7719 11.5161 22.8509 15.3977 18.9212C15.6548 18.6616 15.8005 18.601 16.0918 18.8953C17.8912 20.7043 20.0677 21.5612 22.604 21.3708C24.5919 21.2236 26.2799 20.3927 27.6766 18.9559C28.0793 18.549 28.0793 18.549 28.4735 18.9472C32.6636 23.1625 36.8536 27.3692 41.0523 31.5845C41.1722 31.7057 41.3179 31.8009 41.455 31.9134C41.4379 31.9394 41.4207 31.974 41.4036 32C28.4307 32 15.4749 32 2.4248 32Z" fill="white"/>
<path d="M0 29.3774C0 20.4707 0 11.564 0 2.65735C0.197079 2.65735 0.257059 2.80449 0.351315 2.89971C4.56709 7.16695 8.78286 11.4342 13.0072 15.6928C13.2214 15.9092 13.2985 16.0304 13.0329 16.2987C8.77429 20.5832 4.53281 24.8764 0.274197 29.1697C0.205648 29.2476 0.145667 29.3601 0 29.3774Z" fill="white"/>
<path d="M44 2.64856C44 11.5639 44 20.4619 44 29.3773C43.8201 29.334 43.7516 29.1955 43.6487 29.1003C39.4415 24.8417 35.2343 20.5831 31.0186 16.3418C30.7529 16.0735 30.7529 15.9437 31.0186 15.6753C35.2343 11.4341 39.4415 7.17547 43.6573 2.92554C43.7516 2.83033 43.8287 2.70049 44 2.64856Z" fill="white"/>
</svg>
