<svg width="69" height="27" viewBox="0 0 69 27" fill="none" xmlns="http://www.w3.org/2000/svg">
<g clip-path="url(#clip0)">
<path d="M1.40268 22.6355H0.293497C0.256986 22.6353 0.222047 22.6203 0.19631 22.5939C0.170573 22.5675 0.156127 22.5317 0.156128 22.4945V21.8853C0.156128 21.8481 0.170601 21.8125 0.196362 21.7862C0.222124 21.7599 0.257064 21.7452 0.293497 21.7452H3.46236C3.48047 21.7451 3.49843 21.7486 3.51519 21.7556C3.53196 21.7626 3.5472 21.7729 3.56005 21.7859C3.57289 21.7989 3.58309 21.8144 3.59004 21.8315C3.597 21.8485 3.60058 21.8668 3.60058 21.8853V22.4945C3.60058 22.5319 3.58602 22.5677 3.5601 22.5942C3.53418 22.6206 3.49902 22.6355 3.46236 22.6355H2.35317V26.7859C2.35194 26.8222 2.33742 26.8568 2.31247 26.8827C2.28751 26.9086 2.25394 26.9241 2.21836 26.926H1.54005C1.50396 26.9249 1.46964 26.9098 1.44411 26.8838C1.41857 26.8577 1.40376 26.8227 1.40268 26.7859V22.6355Z" fill="white"/>
<path d="M5.44189 21.8879C5.44189 21.8694 5.44548 21.8511 5.45243 21.8341C5.45939 21.817 5.46958 21.8015 5.48243 21.7885C5.49528 21.7755 5.51052 21.7652 5.52729 21.7582C5.54405 21.7512 5.56201 21.7477 5.58012 21.7478H8.53227C8.55031 21.7478 8.56817 21.7514 8.58484 21.7585C8.6015 21.7655 8.61665 21.7758 8.6294 21.7888C8.64216 21.8018 8.65228 21.8173 8.65918 21.8343C8.66608 21.8513 8.66964 21.8695 8.66964 21.8879V22.4971C8.66964 22.5344 8.65519 22.5701 8.62945 22.5965C8.60372 22.6229 8.56878 22.6379 8.53227 22.6381H6.38471V23.8461H8.17647C8.21265 23.8471 8.24707 23.8622 8.27274 23.8883C8.29841 23.9143 8.31341 23.9493 8.31469 23.9862V24.6006C8.31447 24.6379 8.29981 24.6735 8.27391 24.6997C8.24801 24.726 8.21298 24.7407 8.17647 24.7407H6.38471V26.0357H8.53227C8.5687 26.0357 8.60364 26.0505 8.6294 26.0768C8.65516 26.103 8.66964 26.1387 8.66964 26.1758V26.785C8.66964 26.8222 8.65516 26.8578 8.6294 26.8841C8.60364 26.9104 8.5687 26.9252 8.53227 26.9252H5.58012C5.56201 26.9253 5.54405 26.9217 5.52729 26.9147C5.51052 26.9078 5.49528 26.8975 5.48243 26.8844C5.46958 26.8714 5.45939 26.8559 5.45243 26.8389C5.44548 26.8218 5.44189 26.8035 5.44189 26.785V21.8879Z" fill="white"/>
<path d="M13.0211 21.6703C13.3436 21.6617 13.6646 21.718 13.9657 21.836C14.2669 21.9539 14.5423 22.1313 14.7762 22.3579C14.7912 22.3702 14.8034 22.3857 14.812 22.4032C14.8206 22.4208 14.8255 22.44 14.8262 22.4596C14.8269 22.4793 14.8235 22.4988 14.8162 22.517C14.8089 22.5352 14.7979 22.5515 14.7839 22.565L14.3411 23.0315C14.3302 23.0453 14.3164 23.0564 14.3008 23.064C14.2851 23.0717 14.268 23.0757 14.2506 23.0757C14.2333 23.0757 14.2161 23.0717 14.2005 23.064C14.1848 23.0564 14.171 23.0453 14.1602 23.0315C13.8509 22.7542 13.4542 22.5997 13.0424 22.5963C12.1141 22.5963 11.4213 23.3883 11.4213 24.3204C11.4213 25.2524 12.1176 26.0287 13.0424 26.0287C13.4491 26.0247 13.8415 25.8757 14.1516 25.6075C14.1761 25.5841 14.2085 25.5711 14.2421 25.5711C14.2757 25.5711 14.308 25.5841 14.3325 25.6075L14.7822 26.081C14.8072 26.1085 14.8206 26.145 14.8193 26.1825C14.818 26.22 14.8022 26.2555 14.7753 26.2811C14.3037 26.7483 13.67 27.0061 13.0126 26.9983C12.3201 26.9983 11.6561 26.7177 11.1664 26.2183C10.6768 25.7188 10.4017 25.0415 10.4017 24.3352C10.4017 23.6289 10.6768 22.9515 11.1664 22.4521C11.6561 21.9526 12.3201 21.6721 13.0126 21.6721L13.0211 21.6703Z" fill="white"/>
<path d="M16.8213 21.8879C16.8224 21.8511 16.8372 21.8161 16.8627 21.79C16.8882 21.764 16.9226 21.7489 16.9587 21.7478H17.6336C17.6516 21.7478 17.6695 21.7514 17.6861 21.7584C17.7028 21.7655 17.7179 21.7758 17.7307 21.7888C17.7434 21.8018 17.7536 21.8173 17.7605 21.8343C17.7674 21.8513 17.7709 21.8695 17.7709 21.8879V23.8461H20.136V21.8879C20.136 21.8695 20.1396 21.8513 20.1465 21.8343C20.1534 21.8173 20.1635 21.8018 20.1763 21.7888C20.189 21.7758 20.2042 21.7655 20.2208 21.7584C20.2375 21.7514 20.2554 21.7478 20.2734 21.7478H20.9406C20.9768 21.7489 21.0112 21.7639 21.0369 21.79C21.0626 21.816 21.0776 21.851 21.0789 21.8879V26.7859C21.0776 26.8228 21.0626 26.8578 21.0369 26.8839C21.0112 26.9099 20.9768 26.925 20.9406 26.926H20.2734C20.237 26.926 20.202 26.9113 20.1763 26.885C20.1505 26.8587 20.136 26.8231 20.136 26.7859V24.7433H17.7709V26.7859C17.7709 26.8231 17.7564 26.8587 17.7307 26.885C17.7049 26.9113 17.67 26.926 17.6336 26.926H16.9587C16.9226 26.925 16.8882 26.9098 16.8627 26.8838C16.8372 26.8577 16.8224 26.8227 16.8213 26.7859V21.8879Z" fill="white"/>
<path d="M23.4858 21.807C23.4874 21.7708 23.5027 21.7367 23.5285 21.7118C23.5543 21.6869 23.5886 21.6733 23.6241 21.6738H23.8049L26.8228 24.9435H26.8296V21.8879C26.8296 21.8694 26.8332 21.8511 26.8402 21.8341C26.8471 21.817 26.8573 21.8015 26.8701 21.7885C26.883 21.7755 26.8982 21.7652 26.915 21.7582C26.9318 21.7512 26.9497 21.7477 26.9678 21.7478H27.6351C27.6712 21.7489 27.7055 21.764 27.731 21.79C27.7565 21.8161 27.7714 21.8511 27.7724 21.8879V26.8668C27.7711 26.9029 27.756 26.9371 27.7303 26.9619C27.7046 26.9868 27.6705 27.0005 27.6351 27H27.4644L24.4321 23.6059H24.4252V26.7876C24.4252 26.8061 24.4217 26.8244 24.4147 26.8415C24.4077 26.8585 24.3975 26.874 24.3847 26.887C24.3719 26.9001 24.3566 26.9104 24.3398 26.9173C24.3231 26.9243 24.3051 26.9279 24.287 26.9278H23.6275C23.5913 26.9267 23.5569 26.9116 23.5312 26.8856C23.5055 26.8596 23.4905 26.8245 23.4893 26.7876L23.4858 21.807Z" fill="white"/>
<path d="M32.4224 21.6703C32.9388 21.6688 33.4441 21.8235 33.8743 22.1148C34.3045 22.4062 34.6404 22.8212 34.8394 23.3073C35.0383 23.7933 35.0915 24.3287 34.9922 24.8456C34.8929 25.3625 34.6455 25.8378 34.2814 26.2113C33.9172 26.5848 33.4527 26.8397 32.9465 26.9439C32.4402 27.0481 31.9151 26.9968 31.4375 26.7965C30.9598 26.5963 30.5512 26.256 30.2631 25.8188C29.9751 25.3816 29.8206 24.8671 29.8192 24.3404C29.8177 23.9905 29.8838 23.6438 30.0139 23.3201C30.144 22.9964 30.3355 22.7021 30.5773 22.454C30.8192 22.206 31.1066 22.009 31.4233 21.8745C31.7399 21.7401 32.0794 21.6707 32.4224 21.6703ZM32.4224 26.0348C32.7529 26.0364 33.0765 25.9377 33.3519 25.7514C33.6274 25.5651 33.8424 25.2995 33.9696 24.9884C34.0968 24.6772 34.1306 24.3345 34.0665 24.0037C34.0025 23.673 33.8435 23.3691 33.6099 23.1307C33.3762 22.8922 33.0784 22.7299 32.7542 22.6644C32.4299 22.5989 32.0939 22.6332 31.7888 22.7628C31.4837 22.8924 31.2232 23.1115 31.0404 23.3924C30.8576 23.6733 30.7607 24.0032 30.7621 24.3404C30.7641 24.7893 30.9395 25.2194 31.2503 25.5372C31.5612 25.8551 31.9823 26.0351 32.4224 26.0383V26.0348Z" fill="white"/>
<path d="M37.0699 21.8879C37.0699 21.8695 37.0735 21.8513 37.0804 21.8343C37.0873 21.8173 37.0974 21.8018 37.1102 21.7888C37.1229 21.7758 37.1381 21.7655 37.1547 21.7584C37.1714 21.7514 37.1893 21.7478 37.2073 21.7478H37.8745C37.9107 21.7489 37.9451 21.7639 37.9708 21.79C37.9965 21.816 38.0115 21.851 38.0127 21.8879V26.0383H39.8617C39.8982 26.0383 39.9332 26.0531 39.9591 26.0793C39.985 26.1056 39.9997 26.1412 39.9999 26.1784V26.7876C39.9999 26.8061 39.9963 26.8244 39.9894 26.8415C39.9824 26.8585 39.9722 26.874 39.9594 26.887C39.9465 26.9001 39.9313 26.9104 39.9145 26.9173C39.8977 26.9243 39.8798 26.9279 39.8617 26.9278H37.2073C37.1709 26.9278 37.1359 26.913 37.1102 26.8867C37.0844 26.8604 37.0699 26.8248 37.0699 26.7876V21.8879Z" fill="white"/>
<path d="M44.0101 21.6703C44.5264 21.6689 45.0316 21.8238 45.4617 22.1153C45.8918 22.4068 46.2275 22.8218 46.4264 23.3079C46.6252 23.794 46.6783 24.3293 46.5789 24.8461C46.4795 25.363 46.232 25.8382 45.8679 26.2116C45.5037 26.585 45.0391 26.8399 44.5329 26.944C44.0267 27.0481 43.5016 26.9968 43.0241 26.7965C42.5465 26.5962 42.1378 26.2559 41.8498 25.8187C41.5618 25.3816 41.4074 24.8671 41.406 24.3404C41.4046 23.9905 41.4708 23.6438 41.601 23.3201C41.7312 22.9963 41.9227 22.702 42.1646 22.454C42.4066 22.2059 42.6941 22.009 43.0108 21.8745C43.3275 21.7401 43.667 21.6707 44.0101 21.6703ZM44.0101 26.0349C44.3406 26.0364 44.6641 25.9378 44.9396 25.7514C45.215 25.5651 45.43 25.2995 45.5573 24.9884C45.6845 24.6772 45.7182 24.3345 45.6542 24.0038C45.5901 23.673 45.4312 23.3691 45.1975 23.1307C44.9639 22.8922 44.666 22.7299 44.3418 22.6644C44.0176 22.5989 43.6816 22.6332 43.3764 22.7628C43.0713 22.8924 42.8108 23.1115 42.628 23.3924C42.4452 23.6733 42.3483 24.0033 42.3497 24.3404C42.3515 24.7894 42.5269 25.2196 42.8377 25.5375C43.1486 25.8554 43.5699 26.0354 44.0101 26.0383V26.0349Z" fill="white"/>
<path d="M50.8998 21.6703C51.551 21.6778 52.1783 21.9215 52.6694 22.3578C52.6836 22.3707 52.6951 22.3864 52.7032 22.4039C52.7113 22.4214 52.7158 22.4404 52.7165 22.4597C52.7173 22.4791 52.7141 22.4984 52.7074 22.5165C52.7006 22.5346 52.6903 22.5511 52.6771 22.565L52.2274 23.0462C52.2158 23.0602 52.2014 23.0714 52.1851 23.0791C52.1688 23.0868 52.1511 23.0907 52.1331 23.0907C52.1152 23.0907 52.0975 23.0868 52.0812 23.0791C52.0649 23.0714 52.0505 23.0602 52.0389 23.0462C51.7378 22.7707 51.3478 22.618 50.9433 22.6172C50.0372 22.6172 49.3222 23.4083 49.3222 24.3334C49.3195 24.7785 49.4897 25.2065 49.7955 25.5239C50.1014 25.8413 50.5181 26.0222 50.9544 26.027C51.2495 26.0248 51.5414 25.9639 51.8136 25.8477V25.2185H51.2334C51.2157 25.2193 51.1981 25.2165 51.1815 25.2102C51.1649 25.2039 51.1498 25.1942 51.1369 25.1818C51.1241 25.1693 51.1139 25.1544 51.1068 25.1378C51.0998 25.1212 51.0961 25.1034 51.0961 25.0853V24.5014C51.0953 24.4827 51.0984 24.4642 51.105 24.4468C51.1117 24.4294 51.1218 24.4136 51.1346 24.4004C51.1475 24.3872 51.163 24.3768 51.18 24.3699C51.1969 24.363 51.2151 24.3598 51.2334 24.3604H52.6259C52.6613 24.362 52.6948 24.3776 52.7192 24.4039C52.7435 24.4302 52.7569 24.4652 52.7564 24.5014V26.3951C52.7569 26.4182 52.7519 26.441 52.7418 26.4616C52.7317 26.4823 52.7168 26.5001 52.6984 26.5135C52.1495 26.8292 51.53 26.9949 50.8998 26.9948C50.2083 26.9948 49.5451 26.7146 49.0561 26.2158C48.5671 25.717 48.2924 25.0405 48.2924 24.3352C48.2924 23.6298 48.5671 22.9533 49.0561 22.4545C49.5451 21.9557 50.2083 21.6755 50.8998 21.6755V21.6703Z" fill="white"/>
<path d="M54.9099 21.8879C54.9112 21.851 54.9262 21.816 54.9519 21.79C54.9775 21.7639 55.012 21.7489 55.0481 21.7478H55.723C55.7591 21.7489 55.7935 21.764 55.819 21.79C55.8445 21.8161 55.8593 21.8511 55.8604 21.8879V26.7859C55.8593 26.8227 55.8445 26.8577 55.819 26.8838C55.7935 26.9098 55.7591 26.925 55.723 26.926H55.0481C55.012 26.925 54.9775 26.9099 54.9519 26.8839C54.9262 26.8578 54.9112 26.8228 54.9099 26.7859V21.8879Z" fill="white"/>
<path d="M58.2682 21.8879C58.2682 21.8695 58.2717 21.8513 58.2786 21.8343C58.2855 21.8173 58.2957 21.8018 58.3084 21.7888C58.3212 21.7758 58.3363 21.7655 58.353 21.7585C58.3697 21.7514 58.3875 21.7478 58.4056 21.7478H61.3577C61.3758 21.7477 61.3938 21.7512 61.4105 21.7582C61.4273 21.7652 61.4425 21.7755 61.4554 21.7885C61.4682 21.8015 61.4784 21.817 61.4854 21.8341C61.4923 21.8511 61.4959 21.8694 61.4959 21.8879V22.4971C61.4959 22.5345 61.4814 22.5704 61.4554 22.5968C61.4295 22.6232 61.3944 22.6381 61.3577 22.6381H59.2136V23.8461H61.0053C61.0415 23.8471 61.0759 23.8622 61.1016 23.8883C61.1273 23.9143 61.1423 23.9493 61.1435 23.9862V24.6006C61.1433 24.6379 61.1287 24.6735 61.1028 24.6997C61.0769 24.726 61.0418 24.7407 61.0053 24.7407H59.2136V26.0357H61.3603C61.3968 26.0357 61.4318 26.0505 61.4577 26.0767C61.4836 26.103 61.4983 26.1386 61.4985 26.1758V26.785C61.4985 26.8035 61.4949 26.8218 61.4879 26.8389C61.481 26.8559 61.4708 26.8714 61.458 26.8844C61.4451 26.8975 61.4299 26.9078 61.4131 26.9147C61.3963 26.9217 61.3784 26.9253 61.3603 26.9252H58.4081C58.3717 26.9252 58.3367 26.9104 58.311 26.8841C58.2852 26.8578 58.2708 26.8222 58.2708 26.785L58.2682 21.8879Z" fill="white"/>
<path d="M63.3227 26.2011L63.5837 25.7424C63.5958 25.7217 63.6121 25.7037 63.6313 25.6897C63.6506 25.6756 63.6726 25.6658 63.6958 25.6609C63.719 25.656 63.7429 25.6561 63.7661 25.6611C63.7892 25.6662 63.8111 25.6761 63.8303 25.6902C63.867 25.7128 64.454 26.1489 64.9259 26.1489C65.303 26.1489 65.5854 25.8973 65.5854 25.5797C65.5854 25.202 65.274 24.9435 64.6648 24.692C63.9822 24.4109 63.2996 23.967 63.2996 23.0941C63.2996 22.4353 63.7783 21.6738 64.931 21.6738C65.4526 21.6842 65.9587 21.857 66.3814 22.169C66.4174 22.1968 66.4419 22.2373 66.4499 22.2826C66.458 22.3279 66.4491 22.3746 66.425 22.4136L66.1494 22.8348C66.0913 22.9218 65.983 22.9827 65.8934 22.9218C65.8354 22.8853 65.2842 22.5154 64.8849 22.5154C64.4719 22.5154 64.2467 22.7965 64.2467 23.0332C64.2467 23.3813 64.5155 23.6172 65.0999 23.8617C65.8038 24.1498 66.6161 24.5789 66.6161 25.5336C66.6161 26.2959 65.971 26.9983 64.948 26.9983C64.0342 26.9983 63.4976 26.5631 63.3525 26.4213C63.2936 26.356 63.2578 26.3194 63.3227 26.2011Z" fill="white"/>
<path d="M21.5866 16.8141L25.5788 12.742C25.7132 12.608 25.8203 12.4481 25.8937 12.2716C25.9672 12.0951 26.0055 11.9055 26.0066 11.7138C26.0077 11.522 25.9714 11.332 25.9 11.1547C25.8285 10.9773 25.7233 10.8162 25.5903 10.6806C25.4574 10.5451 25.2994 10.4378 25.1255 10.365C24.9516 10.2922 24.7653 10.2553 24.5773 10.2565C24.3893 10.2577 24.2035 10.2969 24.0304 10.3719C23.8574 10.4468 23.7007 10.5561 23.5694 10.6933L19.5781 14.7654C19.441 14.8987 19.3314 15.0587 19.2559 15.2358C19.1803 15.4129 19.1402 15.6037 19.1379 15.7969C19.1357 15.9901 19.1713 16.1817 19.2427 16.3607C19.3142 16.5396 19.42 16.7021 19.5539 16.8387C19.6878 16.9753 19.8472 17.0833 20.0226 17.1561C20.198 17.229 20.3859 17.2653 20.5753 17.263C20.7647 17.2608 20.9517 17.2198 21.1254 17.1427C21.2991 17.0656 21.4559 16.9539 21.5866 16.8141ZM21.2785 0.45256C21.011 0.18619 20.6513 0.0381233 20.2775 0.0404651C19.9036 0.0428068 19.5458 0.195369 19.2815 0.465069C19.0172 0.73477 18.8678 1.09987 18.8656 1.48119C18.8635 1.86252 19.0088 2.22934 19.2701 2.5021L23.5464 6.86314C23.6768 7.00452 23.8338 7.11772 24.0079 7.19603C24.1821 7.27434 24.3699 7.31616 24.5602 7.319C24.7505 7.32185 24.9394 7.28567 25.1157 7.2126C25.292 7.13953 25.4521 7.03107 25.5866 6.89366C25.721 6.75624 25.827 6.59268 25.8983 6.41268C25.9695 6.23267 26.0046 6.0399 26.0014 5.8458C25.9982 5.6517 25.9568 5.46024 25.8797 5.28277C25.8025 5.10531 25.6912 4.94547 25.5523 4.81273L21.2785 0.45256Z" fill="#3ACEBC"/>
<path d="M35.3097 14.7654C35.4441 14.8994 35.5512 15.0593 35.6246 15.2358C35.6981 15.4123 35.7364 15.6019 35.7375 15.7936C35.7386 15.9854 35.7024 16.1754 35.6309 16.3527C35.5594 16.5301 35.4542 16.6912 35.3212 16.8268C35.1883 16.9623 35.0303 17.0696 34.8564 17.1424C34.6825 17.2152 34.4962 17.2521 34.3082 17.2509C34.1202 17.2497 33.9344 17.2105 33.7614 17.1355C33.5884 17.0606 33.4317 16.9513 33.3004 16.8141L26.4379 9.81432C26.1717 9.54259 26.0221 9.17415 26.0221 8.78998C26.0221 8.40582 26.1717 8.03737 26.4379 7.76565L26.4464 7.75694L33.6084 0.450824C33.8748 0.179038 34.2362 0.02635 34.613 0.02635C34.9899 0.02635 35.3512 0.179038 35.6177 0.450824C35.8842 0.72261 36.0338 1.09123 36.0338 1.4756C36.0338 1.85996 35.8842 2.22858 35.6177 2.50037L29.4515 8.78998L35.3097 14.7654Z" fill="white"/>
<path d="M47.5244 4.81274C47.2685 5.08656 47.1276 5.45163 47.1321 5.82995C47.1365 6.20826 47.2858 6.56982 47.5481 6.83735C47.8103 7.10488 48.1648 7.25716 48.5357 7.26166C48.9066 7.26616 49.2645 7.12251 49.5329 6.86142L53.8093 2.50037C54.0705 2.22761 54.2158 1.86079 54.2137 1.47946C54.2116 1.09814 54.0621 0.733038 53.7979 0.463338C53.5336 0.193637 53.1757 0.041075 52.8018 0.0387332C52.428 0.0363914 52.0683 0.184459 51.8008 0.450828L47.5244 4.81274Z" fill="#3ACEBC"/>
<path d="M57.5925 0.0148029C57.2157 0.0148029 56.8544 0.167469 56.588 0.439217C56.3215 0.710964 56.1719 1.07953 56.1719 1.46384C56.1719 1.84815 56.3215 2.21672 56.588 2.48847C56.8544 2.76022 57.2157 2.91288 57.5925 2.91288H62.019C62.2084 2.91762 62.3969 2.88365 62.5732 2.81298C62.7496 2.74231 62.9103 2.63637 63.0459 2.50138C63.1816 2.3664 63.2893 2.2051 63.3629 2.02699C63.4365 1.84888 63.4744 1.65756 63.4744 1.46428C63.4744 1.271 63.4365 1.07967 63.3629 0.901562C63.2893 0.723452 63.1816 0.562158 63.0459 0.427174C62.9103 0.29219 62.7496 0.186244 62.5732 0.115574C62.3969 0.0449036 62.2084 0.0109369 62.019 0.0156732L57.5925 0.0148029Z" fill="white"/>
<path d="M59.2989 14.3746C58.9221 14.3746 58.5608 14.5273 58.2944 14.7991C58.028 15.0708 57.8783 15.4394 57.8783 15.8237C57.8783 16.208 58.028 16.5766 58.2944 16.8483C58.5608 17.1201 58.9221 17.2727 59.2989 17.2727H67.5649C67.7543 17.2775 67.9428 17.2435 68.1191 17.1728C68.2955 17.1022 68.4562 16.9962 68.5918 16.8612C68.7275 16.7262 68.8352 16.565 68.9088 16.3868C68.9824 16.2087 69.0203 16.0174 69.0203 15.8241C69.0203 15.6308 68.9824 15.4395 68.9088 15.2614C68.8352 15.0833 68.7275 14.922 68.5918 14.787C68.4562 14.652 68.2955 14.5461 68.1191 14.4754C67.9428 14.4047 67.7543 14.3708 67.5649 14.3755L59.2989 14.3746Z" fill="white"/>
<path d="M37.7671 14.7654C37.6326 14.8994 37.5255 15.0593 37.4521 15.2358C37.3787 15.4123 37.3403 15.6019 37.3392 15.7936C37.3382 15.9853 37.3744 16.1754 37.4458 16.3527C37.5173 16.5301 37.6226 16.6912 37.7555 16.8267C37.8884 16.9623 38.0464 17.0696 38.2203 17.1424C38.3942 17.2152 38.5806 17.2521 38.7685 17.2509C38.9565 17.2497 39.1424 17.2105 39.3154 17.1355C39.4884 17.0605 39.6451 16.9513 39.7764 16.8141L46.6388 9.8143C46.9051 9.54258 47.0546 9.17414 47.0546 8.78997C47.0546 8.4058 46.9051 8.03736 46.6388 7.76563L46.632 7.75867L39.465 0.448206C39.3329 0.313688 39.1761 0.207028 39.0036 0.134315C38.831 0.0616023 38.6462 0.0242606 38.4595 0.0244222C38.2729 0.0245838 38.088 0.0622456 37.9157 0.135257C37.7433 0.208269 37.5867 0.3152 37.4548 0.449947C37.3229 0.584693 37.2183 0.744615 37.147 0.920582C37.0758 1.09655 37.0391 1.28511 37.0393 1.47551C37.0395 1.66591 37.0764 1.85441 37.148 2.03026C37.2195 2.2061 37.3244 2.36584 37.4565 2.50036L43.6253 8.78997L37.7671 14.7654Z" fill="white"/>
<path d="M69 1.4447C69 1.63746 68.9622 1.82828 68.889 2.00596C68.8157 2.18365 68.7084 2.34464 68.5734 2.47948L58.2818 12.9804L54.5208 16.8141C54.3891 16.9485 54.2326 17.0551 54.0605 17.1278C53.8883 17.2005 53.7038 17.2379 53.5175 17.2379C53.2367 17.2376 52.9624 17.1525 52.7291 16.9933C52.4957 16.8342 52.3139 16.608 52.2064 16.3435C52.099 16.079 52.0708 15.7879 52.1254 15.507C52.18 15.2262 52.3149 14.9681 52.5132 14.7654L63.0932 3.97377L66.5709 0.429933C66.8357 0.159181 67.1951 0.00673829 67.57 0.00610008H67.5751V8.02233e-06C67.9518 -0.000917013 68.3135 0.150716 68.5807 0.421598C68.8478 0.692481 68.9986 1.06046 69 1.4447Z" fill="#3ACEBC"/>
<path d="M0.724435 14.7654C0.583124 14.8975 0.469485 15.0574 0.390361 15.2355C0.311238 15.4136 0.268266 15.6062 0.264034 15.8017C0.259802 15.9971 0.294396 16.1915 0.365735 16.3729C0.437073 16.5544 0.54368 16.7193 0.679136 16.8576C0.814591 16.996 0.976094 17.1049 1.15392 17.1779C1.33174 17.2509 1.52221 17.2865 1.71386 17.2824C1.9055 17.2783 2.09435 17.2347 2.26905 17.1543C2.44374 17.0738 2.60066 16.9581 2.73036 16.8141L9.59282 9.81432C9.85906 9.5426 10.0086 9.17415 10.0086 8.78999C10.0086 8.40582 9.85906 8.03737 9.59282 7.76565L9.58514 7.75695L2.42491 0.450828C2.15738 0.184459 1.7977 0.0363914 1.42385 0.0387332C1.05001 0.041075 0.692135 0.193637 0.427838 0.463337C0.16354 0.733038 0.0141232 1.09814 0.0119861 1.47946C0.00984908 1.86079 0.155164 2.22761 0.416422 2.50037L6.5818 8.78999L0.724435 14.7654Z" fill="#3ACEBC"/>
<path d="M14.8759 15.7993C14.8759 14.9582 14.2074 14.2763 13.3828 14.2763C12.5581 14.2763 11.8896 14.9582 11.8896 15.7993C11.8896 16.6405 12.5581 17.3223 13.3828 17.3223C14.2074 17.3223 14.8759 16.6405 14.8759 15.7993Z" fill="white"/>
</g>
<defs>
<clipPath id="clip0">
<rect width="69" height="27" fill="white"/>
</clipPath>
</defs>
</svg>
