<svg width="176" height="142" viewBox="0 0 176 142" fill="none" xmlns="http://www.w3.org/2000/svg">
<path d="M56.9104 34.9523C54.5379 30.3016 58.0121 24.436 64.6737 21.8481C67.6621 20.6439 71.0207 20.3288 74.2341 20.9511C75.2514 15.7152 80.6738 11.1213 88.0094 9.88187C97.0734 8.34597 105.625 12.4929 107.107 19.1602C108.589 25.8276 102.447 32.4671 93.3792 34.0045C89.1054 34.7798 84.6548 34.1982 80.8287 32.3642C79.2745 35.2064 76.5827 37.4543 73.2606 38.6844C71.2496 39.476 69.071 39.891 66.8649 39.9025C64.8338 40.0113 62.8103 39.6009 61.0422 38.7217C59.2742 37.8425 57.8384 36.5327 56.9104 34.9523Z" fill="#FF4141"/>
<path d="M44.5399 52.2527L22.283 36.0674L15.3698 52.2527L17.7298 59.3178L15.3698 64.9085L22.283 84.9197L44.5399 66.2324V52.2527Z" fill="#FF4141"/>
<path d="M56.2426 92.2391C52.9426 87.2512 77.0782 68.4402 77.0782 68.4402L89.0006 85.9356C89.0006 85.9356 59.5426 97.2271 56.2426 92.2391Z" fill="#FFA54B"/>
<path d="M94.441 31.2128C123.991 31.2128 147.963 59.0385 147.963 59.0385C147.963 59.0385 123.991 86.8643 94.441 86.8643C64.8906 86.8643 40.9194 74.4066 40.9194 59.0385C40.9194 43.6704 64.8818 31.2128 94.441 31.2128Z" fill="#FFA54B"/>
<path d="M151.159 56.3758C150.488 55.4405 135.403 34.7197 111.363 28.9079C112.639 24.0696 111.699 18.9879 108.744 14.7454C106.937 12.0554 104.347 9.82998 101.238 8.2944C98.1277 6.75882 94.6081 5.96765 91.0351 6.00101C87.4621 6.03438 83.9627 6.89109 80.8912 8.48439C77.8197 10.0777 75.2852 12.351 73.5444 15.0741C58.5456 13.6918 47.3204 26.7638 51.782 39.269C48.4098 41.2687 45.3901 43.6871 42.8183 46.4478C36.5965 42.3359 31.2581 37.2951 27.0504 31.5589C26.7164 31.1104 26.2713 30.7331 25.7479 30.4549C25.2246 30.1766 24.6363 30.0044 24.0264 29.9511C23.4166 29.8977 22.8009 29.9645 22.2246 30.1465C21.6483 30.3286 21.1262 30.6212 20.6968 31.0029C11.756 38.9127 7.30323 49.2631 14.8008 58.3802C7.30499 67.488 11.7543 77.8384 20.6951 85.7498C21.1244 86.1315 21.6465 86.4241 22.2228 86.6061C22.7991 86.7882 23.4149 86.855 24.0247 86.8016C24.6345 86.7483 25.2228 86.5761 25.7462 86.2978C26.2696 86.0196 26.7147 85.6423 27.0487 85.1938C31.2645 79.4454 36.6164 74.3959 42.8552 70.2803C47.3502 74.8357 52.8636 78.5423 59.0578 81.1729C57.318 83.112 55.2079 84.7747 52.8204 86.0877C52.172 86.4366 51.6441 86.9323 51.2928 87.5221C50.9415 88.1119 50.7801 88.7738 50.8256 89.4373C50.8711 90.1008 51.1218 90.7412 51.5512 91.2903C51.9806 91.8393 52.5724 92.2765 53.2639 92.5554C58.9837 94.7305 65.2691 95.5218 71.4602 94.8462C77.6513 94.1705 83.5199 92.0529 88.4498 88.7156C91.9408 89.0724 95.4526 89.2524 98.9676 89.2547C111.937 89.2547 125.098 84.2155 137.028 74.6791C142.397 70.4082 147.143 65.5757 151.157 60.2908C151.577 59.7048 151.799 59.0276 151.799 58.3364C151.799 57.6452 151.577 56.968 151.157 56.382L151.159 56.3758ZM74.7517 22.6906C75.7497 22.9397 76.8188 22.8502 77.7443 22.4399C78.6698 22.0297 79.3832 21.3291 79.7413 20.4789C80.5846 18.3935 82.1429 16.5852 84.2047 15.2995C86.2665 14.0138 88.7318 13.313 91.2658 13.2924C99.8616 13.2924 105.265 20.8322 103.218 27.6039C88.0245 26.8423 72.8643 29.5322 59.2179 35.4109C57.8328 27.6454 65.6912 20.4021 74.7517 22.6906ZM23.2823 77.284C21.4993 75.2883 20.2227 72.9848 19.537 70.526C19.1118 68.7951 19.2217 66.9966 19.8554 65.3149C20.4891 63.6332 21.6238 62.1288 23.1432 60.9559C23.9182 60.2667 24.3524 59.3396 24.3524 58.374C24.3524 57.4084 23.9182 56.4814 23.1432 55.7922C21.6243 54.6202 20.4897 53.117 19.8554 51.4364C19.2211 49.7559 19.11 47.9585 19.5335 46.2282C20.2181 43.7663 21.4948 41.4596 23.2788 39.461C27.6123 44.579 32.8168 49.0888 38.7122 52.8341C37.265 56.4175 37.27 60.3257 38.7263 63.9063C32.8252 67.653 27.6158 72.1654 23.2788 77.287L23.2823 77.284ZM131.346 69.3772C120.857 77.7156 109.966 81.9424 98.9764 81.9424C97.908 81.9424 96.8344 81.9209 95.7573 81.884C99.2517 77.3562 101.71 72.2817 102.998 66.9397C103.248 66.0013 103.063 65.0147 102.484 64.1946C101.904 63.3745 100.977 62.7874 99.9039 62.5609C99.3731 62.4546 98.8235 62.441 98.2866 62.5209C97.7498 62.6008 97.2364 62.7726 96.776 63.0265C96.3157 63.2803 95.9174 63.6112 95.6042 63.9999C95.291 64.3887 95.0691 64.8277 94.9512 65.2917C92.4362 74.9356 86.9538 81.8656 79.0989 85.3305C74.3312 87.4172 68.9529 88.1998 63.6672 87.576C68.5099 82.7744 72.1397 77.1367 74.3205 71.0298C74.6296 70.1058 74.5088 69.1127 73.9843 68.2659C73.4597 67.4192 72.5738 66.787 71.5186 66.5066C70.9963 66.3735 70.4489 66.3319 69.9081 66.3843C69.3672 66.4367 68.8437 66.5821 68.3675 66.812C67.8914 67.0418 67.4721 67.3517 67.1339 67.7237C66.7957 68.0957 66.5452 68.5225 66.397 68.9794C65.6397 71.047 64.6896 73.0571 63.5564 74.9894C55.9883 71.7333 50.3264 67.6662 47.6354 63.57C47.5816 63.4624 47.5162 63.3595 47.44 63.2628C46.4097 61.7505 45.8722 60.0213 45.8856 58.2619C45.8989 56.5026 46.4626 54.7798 47.5157 53.2795C55.6504 40.4701 86.9644 32.6248 105.209 35.1728C119.936 37.2309 133.775 47.6643 142.645 58.3295C139.309 62.333 135.522 66.0346 131.339 69.3787L131.346 69.3772Z" fill="#171753"/>
<path d="M118.873 47.5323C118.306 47.202 117.655 46.9987 116.977 46.9405C116.299 46.8822 115.615 46.9708 114.985 47.1984C114.356 47.426 113.801 47.7856 113.368 48.2452C112.936 48.7049 112.64 49.2505 112.508 49.8337C112.375 50.4169 112.409 51.0197 112.607 51.5887C112.805 52.1577 113.16 52.6753 113.642 53.0956C114.124 53.516 114.717 53.8262 115.369 53.9987C116.021 54.1712 116.712 54.2007 117.38 54.0846C118.183 53.9443 118.921 53.5995 119.5 53.0938C120.078 52.5881 120.472 51.9441 120.632 51.2431C120.792 50.5421 120.71 49.8155 120.397 49.1551C120.084 48.4947 119.553 47.93 118.873 47.5323Z" fill="#171753"/>
<path d="M23.25 117.42C21.09 117.42 19.24 116.95 17.7 116.01C16.18 115.07 15.01 113.8 14.19 112.2C13.37 110.6 12.96 108.83 12.96 106.89C12.96 104.79 13.4 102.94 14.28 101.34C15.16 99.74 16.37 98.48 17.91 97.56C19.45 96.64 21.23 96.17 23.25 96.15C25.41 96.15 27.26 96.62 28.8 97.56C30.34 98.5 31.51 99.77 32.31 101.37C33.13 102.95 33.54 104.72 33.54 106.68C33.54 108.78 33.1 110.64 32.22 112.26C31.36 113.86 30.15 115.12 28.59 116.04C27.05 116.94 25.27 117.4 23.25 117.42ZM23.22 113.49C24.22 113.49 25.13 113.24 25.95 112.74C26.79 112.24 27.45 111.49 27.93 110.49C28.43 109.47 28.68 108.2 28.68 106.68C28.68 105.42 28.46 104.29 28.02 103.29C27.6 102.29 26.98 101.51 26.16 100.95C25.36 100.37 24.41 100.08 23.31 100.08C22.31 100.08 21.39 100.36 20.55 100.92C19.73 101.48 19.07 102.27 18.57 103.29C18.07 104.29 17.82 105.48 17.82 106.86C17.82 108.14 18.03 109.28 18.45 110.28C18.89 111.28 19.51 112.07 20.31 112.65C21.13 113.21 22.1 113.49 23.22 113.49ZM43.92 123.27L39.24 123.57V102.48H41.61L42.45 103.38C42.99 102.96 43.59 102.63 44.25 102.39C44.93 102.13 45.64 102 46.38 102C47.84 102 49.12 102.29 50.22 102.87C51.34 103.45 52.21 104.31 52.83 105.45C53.45 106.57 53.76 107.95 53.76 109.59C53.76 112.03 53.08 113.93 51.72 115.29C50.36 116.65 48.52 117.33 46.2 117.33C45.46 117.33 44.7 117.17 43.92 116.85V123.27ZM45.87 105.78C45.25 105.78 44.6 106 43.92 106.44V112.98C44.6 113.38 45.29 113.58 45.99 113.58C46.87 113.58 47.58 113.22 48.12 112.5C48.66 111.76 48.93 110.8 48.93 109.62C48.93 108.44 48.66 107.51 48.12 106.83C47.6 106.13 46.85 105.78 45.87 105.78ZM72.5229 111H63.1929C63.3729 111.76 63.7629 112.38 64.3629 112.86C64.9629 113.32 65.8529 113.55 67.0329 113.55C67.8929 113.55 68.6529 113.44 69.3129 113.22C69.9929 112.98 70.6029 112.71 71.1429 112.41L72.4629 115.68C71.8429 116.14 71.0329 116.53 70.0329 116.85C69.0529 117.17 67.9429 117.33 66.7029 117.33C64.0429 117.33 61.9429 116.67 60.4029 115.35C58.8829 114.01 58.1229 112.14 58.1229 109.74C58.1229 108.14 58.4429 106.77 59.0829 105.63C59.7429 104.47 60.6429 103.58 61.7829 102.96C62.9229 102.32 64.2329 102 65.7129 102C67.2529 102 68.5229 102.35 69.5229 103.05C70.5229 103.75 71.2729 104.68 71.7729 105.84C72.2729 106.98 72.5229 108.23 72.5229 109.59V111ZM63.1329 108.33H68.0529C67.9529 107.63 67.6929 107.05 67.2729 106.59C66.8729 106.11 66.3129 105.87 65.5929 105.87C64.9529 105.87 64.4029 106.1 63.9429 106.56C63.4829 107 63.2129 107.59 63.1329 108.33ZM82.4653 117H77.7553V102.45H80.6653L81.4753 103.98C82.2953 103.42 83.2153 102.95 84.2353 102.57C85.2753 102.17 86.2853 101.97 87.2653 101.97C88.5453 101.97 89.5553 102.22 90.2953 102.72C91.0553 103.22 91.5953 103.91 91.9153 104.79C92.2353 105.65 92.3953 106.63 92.3953 107.73V117H87.6853V108.09C87.6853 107.41 87.5353 106.86 87.2353 106.44C86.9553 106.02 86.5053 105.81 85.8853 105.81C85.3253 105.81 84.7253 105.95 84.0853 106.23C83.4653 106.51 82.9253 106.79 82.4653 107.07V117ZM121.122 117L115.452 108.96L113.652 110.76V117H108.942V96.6H113.652V104.4L122.172 96.15L125.742 98.79L118.752 105.69L127.032 117H121.122ZM138.982 117.33C137.402 117.33 136.012 117.04 134.812 116.46C133.632 115.86 132.702 115 132.022 113.88C131.342 112.74 131.002 111.34 131.002 109.68C131.002 108.1 131.352 106.74 132.052 105.6C132.752 104.44 133.702 103.55 134.902 102.93C136.102 102.31 137.482 102 139.042 102C140.622 102 142.012 102.31 143.212 102.93C144.412 103.53 145.352 104.41 146.032 105.57C146.712 106.71 147.052 108.1 147.052 109.74C147.052 111.34 146.702 112.71 146.002 113.85C145.302 114.97 144.342 115.83 143.122 116.43C141.922 117.03 140.542 117.33 138.982 117.33ZM139.012 113.46C139.972 113.46 140.742 113.13 141.322 112.47C141.902 111.79 142.192 110.88 142.192 109.74C142.192 108.62 141.902 107.7 141.322 106.98C140.762 106.26 140.012 105.9 139.072 105.9C138.092 105.9 137.312 106.25 136.732 106.95C136.152 107.65 135.862 108.56 135.862 109.68C135.862 110.8 136.142 111.71 136.702 112.41C137.282 113.11 138.052 113.46 139.012 113.46ZM154.615 100.44C153.915 100.44 153.305 100.19 152.785 99.69C152.285 99.17 152.035 98.56 152.035 97.86C152.035 97.14 152.285 96.53 152.785 96.03C153.305 95.51 153.915 95.25 154.615 95.25C155.335 95.25 155.945 95.51 156.445 96.03C156.965 96.53 157.225 97.14 157.225 97.86C157.225 98.56 156.965 99.17 156.445 99.69C155.945 100.19 155.335 100.44 154.615 100.44ZM156.985 117H152.275V102.45H156.985V117Z" fill="white"/>
</svg>
