<svg width="116" height="87" viewBox="0 0 116 87" fill="none" xmlns="http://www.w3.org/2000/svg">
<path d="M79.3694 45.8276C79.3694 42.4745 82.0522 39.792 85.4056 39.792C88.7591 39.792 91.4418 42.4745 91.4418 45.8276C91.4418 49.1807 88.7591 51.8632 85.4056 51.8632C82.0522 51.8632 79.3694 49.0689 79.3694 45.8276Z" fill="white"/>
<path d="M115.811 60.4708C115.587 62.3709 115.363 64.271 114.805 66.0593C113.128 72.4302 109.439 78.2423 103.403 81.4837C95.1309 85.7309 85.2941 84.1661 77.0222 80.9248C70.2035 85.7309 70.2035 85.7309 70.2035 85.7309C68.6385 86.7369 66.6264 85.0603 67.5207 83.3837C65.6204 83.7191 65.0615 81.9307 65.6204 80.4777C64.0555 81.7072 62.7141 79.4718 63.6083 78.1305C64.1672 77.2364 65.0615 76.2304 65.7322 75.448C56.1189 69.9713 47.3999 63.2651 38.5691 56.6706C43.5993 59.8002 63.7201 70.083 68.6385 72.2067C73.7805 74.4421 78.9225 76.6775 84.288 77.907C88.7593 78.9129 94.4602 79.4718 98.5961 76.901C102.397 74.6656 103.85 70.083 104.409 65.9475C105.75 57.0059 102.62 46.9465 97.9254 39.3461C93.007 31.4104 84.9587 24.2571 75.7926 21.9099C72.4391 21.0158 69.0857 21.0158 65.9557 21.5746C58.6899 22.8041 52.0948 27.2749 47.0646 32.8635C39.7987 40.9109 34.7685 50.8585 30.1855 60.6943C27.0556 67.2888 22.6961 83.3838 12.4121 77.0128C7.82906 74.1068 4.92272 69.0771 2.91064 64.1592C0.675001 58.906 -0.889951 51.8644 0.563217 46.1642C3.69312 34.2047 20.4604 44.8229 26.1613 48.6231C25.826 48.5113 12.4121 42.364 7.49371 47.1701C5.25807 49.4055 5.36985 53.4292 5.7052 56.3353C6.37589 61.5885 8.94688 69.4124 13.8653 72.3185C20.2369 76.0069 23.4785 64.4945 25.1553 60.4708C27.9498 53.6528 30.6326 46.8348 33.7625 40.1285C37.2278 32.7517 41.3637 25.4866 47.0646 19.5628C45.835 18.1097 44.0465 16.3214 43.9347 14.4213C43.7111 12.2977 45.835 9.95049 48.0706 11.0682C45.4996 8.16216 48.9649 3.80311 52.3183 5.47967C50.7534 3.02072 53.2126 -0.10886 55.7836 0.00291099C57.2367 0.00291099 58.6899 1.23238 59.8077 2.01478C62.7141 3.91488 65.6204 5.92675 68.6385 7.82685C96.4723 3.4678 118.27 35.0989 115.811 60.4708Z" fill="white"/>
</svg>
