<svg width="160" height="166" viewBox="0 0 160 166" fill="none" xmlns="http://www.w3.org/2000/svg">
<g clip-path="url(#clip0)">
<path d="M21.8294 11.0501L21.8294 10.7397L-1.52588e-05 10.7397L-1.52724e-05 11.0501L21.8294 11.0501Z" fill="#CACACA"/>
<path d="M10.787 21.8345L11.0971 21.8345L11.0971 -0.017374L10.787 -0.0173741L10.787 21.8345Z" fill="#CACACA"/>
<path d="M21.8294 59.0995L21.8294 58.7891L-1.52588e-05 58.7891L-1.52724e-05 59.0995L21.8294 59.0995Z" fill="#CACACA"/>
<path d="M10.7982 69.895L11.1082 69.895L11.1082 48.0431L10.7982 48.0431L10.7982 69.895Z" fill="#CACACA"/>
<path d="M21.8294 107.211L21.8294 106.901L-3.05176e-05 106.901L-3.05311e-05 107.211L21.8294 107.211Z" fill="#CACACA"/>
<path d="M10.7472 117.955L11.0573 117.955L11.0573 96.1035L10.7472 96.1035L10.7472 117.955Z" fill="#CACACA"/>
<path d="M21.8294 155.26L21.8294 154.95L0 154.95L-1.35671e-08 155.26L21.8294 155.26Z" fill="#CACACA"/>
<path d="M10.7582 166.016L11.0683 166.016L11.0683 144.164L10.7582 144.164L10.7582 166.016Z" fill="#CACACA"/>
<path d="M67.6589 11.0501L67.6589 10.7397L45.8294 10.7397L45.8294 11.0501L67.6589 11.0501Z" fill="#CACACA"/>
<path d="M56.5972 21.8539L56.9073 21.8539L56.9073 0.00203514L56.5972 0.00203513L56.5972 21.8539Z" fill="#CACACA"/>
<path d="M67.6589 59.0995L67.6589 58.7891L45.8294 58.7891L45.8294 59.0995L67.6589 59.0995Z" fill="#CACACA"/>
<path d="M56.6083 69.9144L56.9184 69.9144L56.9184 48.0625L56.6083 48.0625L56.6083 69.9144Z" fill="#CACACA"/>
<path d="M67.6589 107.211L67.6589 106.901L45.8295 106.901L45.8295 107.211L67.6589 107.211Z" fill="#CACACA"/>
<path d="M56.5573 117.975L56.8674 117.975L56.8674 96.1228L56.5573 96.1228L56.5573 117.975Z" fill="#CACACA"/>
<path d="M67.6589 155.26L67.6589 154.95L45.8294 154.95L45.8294 155.26L67.6589 155.26Z" fill="#CACACA"/>
<path d="M56.5683 166.035L56.8784 166.035L56.8784 144.183L56.5683 144.183L56.5683 166.035Z" fill="#CACACA"/>
<path d="M113.488 11.0501L113.488 10.7397L91.6589 10.7397L91.6589 11.0501L113.488 11.0501Z" fill="#CACACA"/>
<path d="M102.469 21.8114L102.779 21.8114L102.779 -0.0405045L102.469 -0.0405045L102.469 21.8114Z" fill="#CACACA"/>
<path d="M113.488 59.0995L113.488 58.7891L91.6589 58.7891L91.6589 59.0995L113.488 59.0995Z" fill="#CACACA"/>
<path d="M102.48 69.8719L102.79 69.8719L102.79 48.02L102.48 48.02L102.48 69.8719Z" fill="#CACACA"/>
<path d="M113.488 107.211L113.488 106.901L91.6589 106.901L91.6589 107.211L113.488 107.211Z" fill="#CACACA"/>
<path d="M102.429 117.932L102.739 117.932L102.739 96.0804L102.429 96.0804L102.429 117.932Z" fill="#CACACA"/>
<path d="M113.488 155.26L113.488 154.95L91.6589 154.95L91.6589 155.26L113.488 155.26Z" fill="#CACACA"/>
<path d="M102.44 165.993L102.75 165.993L102.75 144.141L102.44 144.141L102.44 165.993Z" fill="#CACACA"/>
<path d="M159.318 11.0501L159.318 10.7397L137.488 10.7397L137.488 11.0501L159.318 11.0501Z" fill="#CACACA"/>
<path d="M148.279 21.8308L148.589 21.8308L148.589 -0.0210972L148.279 -0.0210972L148.279 21.8308Z" fill="#CACACA"/>
<path d="M159.318 59.0995L159.318 58.7891L137.488 58.7891L137.488 59.0995L159.318 59.0995Z" fill="#CACACA"/>
<path d="M148.29 69.8913L148.6 69.8913L148.6 48.0394L148.29 48.0394L148.29 69.8913Z" fill="#CACACA"/>
<path d="M159.318 107.211L159.318 106.901L137.488 106.901L137.488 107.211L159.318 107.211Z" fill="#CACACA"/>
<path d="M148.239 117.952L148.549 117.952L148.549 96.0998L148.239 96.0998L148.239 117.952Z" fill="#CACACA"/>
<path d="M159.318 155.26L159.318 154.95L137.488 154.95L137.488 155.26L159.318 155.26Z" fill="#CACACA"/>
<path d="M148.25 166.012L148.56 166.012L148.56 144.16L148.25 144.16L148.25 166.012Z" fill="#CACACA"/>
</g>
<path d="M38.0349 32.9021C34.3323 29.0326 28.4797 29.0326 24.777 32.9021C21.0743 36.7715 21.0743 42.8878 24.777 46.7572L52.965 76.215C56.6677 80.0845 62.5203 80.0845 66.223 76.215C69.9257 72.3456 69.9257 66.2293 66.223 62.3599L38.0349 32.9021Z" fill="#3ACEBC"/>
<path d="M24.0701 129.135C20.2099 132.772 19.9686 138.794 23.467 142.808C26.9653 146.822 32.7557 147.072 36.616 143.435L65.9299 115.838C69.7901 112.201 70.0314 106.18 66.533 102.165C63.0347 98.1514 57.2443 97.9006 53.384 101.538L24.0701 129.135Z" fill="#3ACEBC"/>
<path d="M130.192 129.264C133.895 133.128 133.895 139.237 130.192 143.102C126.489 146.966 120.635 146.966 116.932 143.102L71.7774 95.9785C68.0742 92.1139 68.0742 86.0054 71.7774 82.1408L118.963 32.8984C122.666 29.0339 128.519 29.0339 132.223 32.8984C135.926 36.763 135.926 42.8716 132.223 46.7362L91.6072 89.122L130.192 129.264Z" fill="white"/>
<defs>
<clipPath id="clip0">
<rect width="166" height="160" fill="white" transform="translate(160) rotate(90)"/>
</clipPath>
</defs>
</svg>
