<svg width="114" height="116" viewBox="0 0 114 116" fill="none" xmlns="http://www.w3.org/2000/svg">
<path d="M17.0349 2.90209C13.3323 -0.967364 7.47967 -0.967364 3.777 2.90209C0.0743327 6.77154 0.0743327 12.8878 3.777 16.7572L31.965 46.215C35.6677 50.0845 41.5203 50.0845 45.223 46.215C48.9257 42.3456 48.9257 36.2293 45.223 32.3599L17.0349 2.90209Z" fill="#3ACEBC"/>
<path d="M3.07015 99.1348C-0.790113 102.772 -1.03138 108.794 2.46698 112.808C5.96534 116.822 11.7557 117.072 15.616 113.435L44.9299 85.8383C48.7901 82.2006 49.0314 76.1795 45.533 72.1655C42.0347 68.1514 36.2443 67.9006 32.384 71.5383L3.07015 99.1348Z" fill="#3ACEBC"/>
<path d="M109.192 99.2638C112.895 103.128 112.895 109.237 109.192 113.102C105.489 116.966 99.6353 116.966 95.9321 113.102L50.7774 65.9785C47.0742 62.1139 47.0742 56.0054 50.7774 52.1408L97.9629 2.89844C101.666 -0.966147 107.519 -0.966147 111.223 2.89844C114.926 6.76303 114.926 12.8716 111.223 16.7362L70.6072 59.122L109.192 99.2638Z" fill="white"/>
</svg>
