<svg width="160" height="166" viewBox="0 0 160 166" fill="none" xmlns="http://www.w3.org/2000/svg">
<g clip-path="url(#clip0)">
<path d="M21.8295 11.0501L21.8295 10.7397L7.62939e-06 10.7397L7.61583e-06 11.0501L21.8295 11.0501Z" fill="#CACACA"/>
<path d="M10.7871 21.8345L11.0972 21.8345L11.0972 -0.017374L10.7871 -0.0173741L10.7871 21.8345Z" fill="#CACACA"/>
<path d="M21.8295 59.0995L21.8295 58.7891L3.8147e-06 58.7891L3.80113e-06 59.0995L21.8295 59.0995Z" fill="#CACACA"/>
<path d="M10.7982 69.895L11.1083 69.895L11.1083 48.0431L10.7982 48.0431L10.7982 69.895Z" fill="#CACACA"/>
<path d="M21.8294 107.211L21.8294 106.901L3.8147e-06 106.901L3.80113e-06 107.211L21.8294 107.211Z" fill="#CACACA"/>
<path d="M10.7472 117.955L11.0573 117.955L11.0573 96.1035L10.7472 96.1035L10.7472 117.955Z" fill="#CACACA"/>
<path d="M21.8294 155.26L21.8294 154.95L0 154.95L-1.35671e-08 155.26L21.8294 155.26Z" fill="#CACACA"/>
<path d="M10.7583 166.016L11.0683 166.016L11.0683 144.164L10.7583 144.164L10.7583 166.016Z" fill="#CACACA"/>
<path d="M67.6589 11.0501L67.6589 10.7397L45.8295 10.7397L45.8295 11.0501L67.6589 11.0501Z" fill="#CACACA"/>
<path d="M56.5972 21.8539L56.9073 21.8539L56.9073 0.00203514L56.5972 0.00203513L56.5972 21.8539Z" fill="#CACACA"/>
<path d="M67.6589 59.0995L67.6589 58.7891L45.8295 58.7891L45.8295 59.0995L67.6589 59.0995Z" fill="#CACACA"/>
<path d="M56.6083 69.9144L56.9184 69.9144L56.9184 48.0625L56.6083 48.0625L56.6083 69.9144Z" fill="#CACACA"/>
<path d="M67.6589 107.211L67.6589 106.901L45.8295 106.901L45.8295 107.211L67.6589 107.211Z" fill="#CACACA"/>
<path d="M56.5573 117.975L56.8674 117.975L56.8674 96.1228L56.5573 96.1228L56.5573 117.975Z" fill="#CACACA"/>
<path d="M67.6589 155.26L67.6589 154.95L45.8294 154.95L45.8294 155.26L67.6589 155.26Z" fill="#CACACA"/>
<path d="M56.5683 166.035L56.8784 166.035L56.8784 144.183L56.5683 144.183L56.5683 166.035Z" fill="#CACACA"/>
<path d="M113.488 11.0501L113.488 10.7397L91.6589 10.7397L91.6589 11.0501L113.488 11.0501Z" fill="#CACACA"/>
<path d="M102.469 21.8114L102.779 21.8114L102.779 -0.0405045L102.469 -0.0405045L102.469 21.8114Z" fill="#CACACA"/>
<path d="M113.488 59.0995L113.488 58.7891L91.6589 58.7891L91.6589 59.0995L113.488 59.0995Z" fill="#CACACA"/>
<path d="M102.48 69.8719L102.79 69.8719L102.79 48.02L102.48 48.02L102.48 69.8719Z" fill="#CACACA"/>
<path d="M113.488 107.211L113.488 106.901L91.6589 106.901L91.6589 107.211L113.488 107.211Z" fill="#CACACA"/>
<path d="M102.429 117.932L102.739 117.932L102.739 96.0804L102.429 96.0804L102.429 117.932Z" fill="#CACACA"/>
<path d="M113.488 155.26L113.488 154.95L91.6589 154.95L91.6589 155.26L113.488 155.26Z" fill="#CACACA"/>
<path d="M102.44 165.993L102.75 165.993L102.75 144.141L102.44 144.141L102.44 165.993Z" fill="#CACACA"/>
<path d="M159.318 11.0501L159.318 10.7397L137.488 10.7397L137.488 11.0501L159.318 11.0501Z" fill="#CACACA"/>
<path d="M148.279 21.8308L148.589 21.8308L148.589 -0.0210972L148.279 -0.0210972L148.279 21.8308Z" fill="#CACACA"/>
<path d="M159.318 59.0995L159.318 58.7891L137.488 58.7891L137.488 59.0995L159.318 59.0995Z" fill="#CACACA"/>
<path d="M148.29 69.8913L148.6 69.8913L148.6 48.0394L148.29 48.0394L148.29 69.8913Z" fill="#CACACA"/>
<path d="M159.318 107.211L159.318 106.901L137.488 106.901L137.488 107.211L159.318 107.211Z" fill="#CACACA"/>
<path d="M148.239 117.952L148.549 117.952L148.549 96.0998L148.239 96.0998L148.239 117.952Z" fill="#CACACA"/>
<path d="M159.318 155.26L159.318 154.95L137.488 154.95L137.488 155.26L159.318 155.26Z" fill="#CACACA"/>
<path d="M148.25 166.012L148.56 166.012L148.56 144.16L148.25 144.16L148.25 166.012Z" fill="#CACACA"/>
</g>
<path d="M93.88 62.2845C90.186 66.1449 90.186 72.2469 93.88 76.1074C97.5741 79.9678 103.413 79.9678 107.107 76.1074L135.229 46.7182C138.924 42.8578 138.924 36.7558 135.229 32.8953C131.535 29.0349 125.696 29.0349 122.002 32.8953L93.88 62.2845Z" fill="#3ACEBC"/>
<path d="M29.771 129.282C26.077 133.142 26.077 139.244 29.771 143.105C33.4651 146.965 39.304 146.965 42.9981 143.105L88.0415 96.0322C91.7356 92.1718 91.7356 86.0698 88.0415 82.2093L40.8532 32.8953C37.1591 29.0349 31.3202 29.0349 27.6261 32.8953C23.9321 36.7558 23.9321 42.8578 27.6261 46.7182L68.1414 89.0585L29.771 129.282Z" fill="white"/>
<defs>
<clipPath id="clip0">
<rect width="166" height="160" fill="white" transform="translate(160) rotate(90)"/>
</clipPath>
</defs>
</svg>
