<svg width="114" height="116" viewBox="0 0 114 116" fill="none" xmlns="http://www.w3.org/2000/svg">
<path d="M69.88 32.2845C66.186 36.1449 66.186 42.2469 69.88 46.1074C73.5741 49.9678 79.4131 49.9678 83.1071 46.1074L111.229 16.7182C114.924 12.8578 114.924 6.75577 111.229 2.89533C107.535 -0.965111 101.696 -0.965111 98.0024 2.89533L69.88 32.2845Z" fill="#3ACEBC"/>
<path d="M5.77105 99.2818C2.07701 103.142 2.07701 109.244 5.77105 113.105C9.46509 116.965 15.304 116.965 18.9981 113.105L64.0415 66.0322C67.7356 62.1718 67.7356 56.0698 64.0415 52.2093L16.8532 2.89533C13.1591 -0.96511 7.32016 -0.96511 3.62612 2.89533C-0.0679188 6.75577 -0.0679188 12.8578 3.62612 16.7182L44.1414 59.0585L5.77105 99.2818Z" fill="white"/>
</svg>
