<svg width="114" height="116" viewBox="0 0 114 116" fill="none" xmlns="http://www.w3.org/2000/svg">
<path d="M37.06 0.116882C31.7657 0.116882 27.5073 4.49975 27.5073 9.81764C27.5073 15.194 31.8233 19.5184 37.06 19.5184H66.9268C72.2211 19.5184 76.4795 15.1355 76.4795 9.81764C76.4795 4.44132 72.1635 0.116882 66.9268 0.116882H37.06Z" fill="white"/>
<path d="M48.5694 96.54C43.2751 96.54 39.0166 100.923 39.0166 106.241C39.0166 111.617 43.3326 115.942 48.5694 115.942H104.332C109.626 115.942 113.885 111.559 113.885 106.241C113.885 100.864 109.569 96.54 104.332 96.54H48.5694Z" fill="white"/>
<path d="M114 9.70076C114 12.3889 112.907 14.9018 111.18 16.6549L41.6638 87.1899L16.3433 112.903C14.5593 114.714 12.0848 115.766 9.55275 115.766C7.07824 115.766 4.66128 114.831 2.76224 112.903C0.863201 110.974 0 108.52 0 106.007C0 103.494 0.920747 101.04 2.81979 99.1113L74.1777 26.6479L97.5992 2.86348C99.3831 1.05189 101.8 0 104.332 0H104.39V0C109.684 0 113.942 4.32443 114 9.70076Z" fill="#3ACEBC"/>
</svg>
