<svg width="160" height="166" viewBox="0 0 160 166" fill="none" xmlns="http://www.w3.org/2000/svg">
<g clip-path="url(#clip0)">
<path d="M21.8295 11.0501L21.8295 10.7397L1.52588e-05 10.7397L1.52452e-05 11.0501L21.8295 11.0501Z" fill="#CACACA"/>
<path d="M10.7871 21.8345L11.0972 21.8345L11.0972 -0.017374L10.7871 -0.0173741L10.7871 21.8345Z" fill="#CACACA"/>
<path d="M21.8295 59.0995L21.8295 58.7891L1.52588e-05 58.7891L1.52452e-05 59.0995L21.8295 59.0995Z" fill="#CACACA"/>
<path d="M10.7982 69.895L11.1083 69.895L11.1083 48.0431L10.7982 48.0431L10.7982 69.895Z" fill="#CACACA"/>
<path d="M21.8294 107.211L21.8294 106.901L0 106.901L-1.35674e-08 107.211L21.8294 107.211Z" fill="#CACACA"/>
<path d="M10.7473 117.955L11.0573 117.955L11.0573 96.1035L10.7473 96.1035L10.7473 117.955Z" fill="#CACACA"/>
<path d="M21.8295 155.26L21.8295 154.95L3.05176e-05 154.95L3.0504e-05 155.26L21.8295 155.26Z" fill="#CACACA"/>
<path d="M10.7583 166.016L11.0683 166.016L11.0683 144.164L10.7583 144.164L10.7583 166.016Z" fill="#CACACA"/>
<path d="M67.6589 11.0501L67.6589 10.7397L45.8295 10.7397L45.8295 11.0501L67.6589 11.0501Z" fill="#CACACA"/>
<path d="M56.5972 21.8539L56.9073 21.8539L56.9073 0.00203514L56.5972 0.00203513L56.5972 21.8539Z" fill="#CACACA"/>
<path d="M67.6589 59.0995L67.6589 58.7891L45.8295 58.7891L45.8295 59.0995L67.6589 59.0995Z" fill="#CACACA"/>
<path d="M56.6083 69.9144L56.9184 69.9144L56.9184 48.0625L56.6083 48.0625L56.6083 69.9144Z" fill="#CACACA"/>
<path d="M67.659 107.211L67.659 106.901L45.8295 106.901L45.8295 107.211L67.659 107.211Z" fill="#CACACA"/>
<path d="M56.5573 117.975L56.8674 117.975L56.8674 96.1228L56.5573 96.1228L56.5573 117.975Z" fill="#CACACA"/>
<path d="M67.6589 155.26L67.6589 154.95L45.8295 154.95L45.8295 155.26L67.6589 155.26Z" fill="#CACACA"/>
<path d="M56.5683 166.035L56.8784 166.035L56.8784 144.183L56.5683 144.183L56.5683 166.035Z" fill="#CACACA"/>
<path d="M113.488 11.0501L113.488 10.7397L91.6589 10.7397L91.6589 11.0501L113.488 11.0501Z" fill="#CACACA"/>
<path d="M102.469 21.8114L102.779 21.8114L102.779 -0.0405045L102.469 -0.0405045L102.469 21.8114Z" fill="#CACACA"/>
<path d="M113.488 59.0995L113.488 58.7891L91.6589 58.7891L91.6589 59.0995L113.488 59.0995Z" fill="#CACACA"/>
<path d="M102.48 69.8719L102.79 69.8719L102.79 48.02L102.48 48.02L102.48 69.8719Z" fill="#CACACA"/>
<path d="M113.488 107.211L113.488 106.901L91.659 106.901L91.659 107.211L113.488 107.211Z" fill="#CACACA"/>
<path d="M102.429 117.932L102.739 117.932L102.739 96.0804L102.429 96.0804L102.429 117.932Z" fill="#CACACA"/>
<path d="M113.488 155.26L113.488 154.95L91.659 154.95L91.659 155.26L113.488 155.26Z" fill="#CACACA"/>
<path d="M102.44 165.993L102.75 165.993L102.75 144.141L102.44 144.141L102.44 165.993Z" fill="#CACACA"/>
<path d="M159.318 11.0501L159.318 10.7397L137.488 10.7397L137.488 11.0501L159.318 11.0501Z" fill="#CACACA"/>
<path d="M148.279 21.8308L148.589 21.8308L148.589 -0.0210972L148.279 -0.0210972L148.279 21.8308Z" fill="#CACACA"/>
<path d="M159.318 59.0995L159.318 58.7891L137.488 58.7891L137.488 59.0995L159.318 59.0995Z" fill="#CACACA"/>
<path d="M148.29 69.8913L148.6 69.8913L148.6 48.0394L148.29 48.0394L148.29 69.8913Z" fill="#CACACA"/>
<path d="M159.318 107.211L159.318 106.901L137.488 106.901L137.488 107.211L159.318 107.211Z" fill="#CACACA"/>
<path d="M148.239 117.952L148.549 117.952L148.549 96.0998L148.239 96.0998L148.239 117.952Z" fill="#CACACA"/>
<path d="M159.318 155.26L159.318 154.95L137.488 154.95L137.488 155.26L159.318 155.26Z" fill="#CACACA"/>
<path d="M148.25 166.012L148.56 166.012L148.56 144.16L148.25 144.16L148.25 166.012Z" fill="#CACACA"/>
</g>
<path d="M61.06 30.1169C55.7657 30.1169 51.5073 34.4998 51.5073 39.8176C51.5073 45.194 55.8233 49.5184 61.06 49.5184H90.9268C96.2211 49.5184 100.48 45.1355 100.48 39.8176C100.48 34.4413 96.1635 30.1169 90.9268 30.1169H61.06Z" fill="white"/>
<path d="M72.5694 126.54C67.2751 126.54 63.0166 130.923 63.0166 136.241C63.0166 141.617 67.3326 145.942 72.5694 145.942H128.332C133.626 145.942 137.885 141.559 137.885 136.241C137.885 130.864 133.569 126.54 128.332 126.54H72.5694Z" fill="white"/>
<path d="M138 39.7008C138 42.3889 136.907 44.9018 135.18 46.6549L65.6638 117.19L40.3433 142.903C38.5593 144.714 36.0848 145.766 33.5528 145.766C31.0782 145.766 28.6613 144.831 26.7622 142.903C24.8632 140.974 24 138.52 24 136.007C24 133.494 24.9207 131.04 26.8198 129.111L98.1777 56.6479L121.599 32.8635C123.383 31.0519 125.8 30 128.332 30H128.39V30C133.684 30 137.942 34.3244 138 39.7008Z" fill="#3ACEBC"/>
<defs>
<clipPath id="clip0">
<rect width="166" height="160" fill="white" transform="translate(160) rotate(90)"/>
</clipPath>
</defs>
</svg>
