<svg width="82" height="80" viewBox="0 0 82 80" fill="none" xmlns="http://www.w3.org/2000/svg">
<path d="M6.63398 46.1131C10.082 46.1131 12.8771 43.3761 12.8771 40C12.8771 36.6239 10.082 33.887 6.63398 33.887C3.186 33.887 0.390869 36.6239 0.390869 40C0.390869 43.3761 3.186 46.1131 6.63398 46.1131Z" fill="white"/>
<path d="M75.7569 46.1131C79.2049 46.1131 82 43.3761 82 40C82 36.6239 79.2049 33.887 75.7569 33.887C72.3089 33.887 69.5138 36.6239 69.5138 40C69.5138 43.3761 72.3089 46.1131 75.7569 46.1131Z" fill="#3ACEBC"/>
<path d="M41.344 12.3074C44.792 12.3074 47.5871 9.57049 47.5871 6.19434C47.5871 2.8182 44.792 0.0812988 41.344 0.0812988C37.896 0.0812988 35.1009 2.8182 35.1009 6.19434C35.1009 9.57049 37.896 12.3074 41.344 12.3074Z" fill="white"/>
<path d="M41.344 79.9902C44.792 79.9902 47.5871 77.2533 47.5871 73.8772C47.5871 70.5011 44.792 67.7642 41.344 67.7642C37.896 67.7642 35.1009 70.5011 35.1009 73.8772C35.1009 77.2533 37.896 79.9902 41.344 79.9902Z" fill="white"/>
<path d="M11.727 75.8928L30.6807 57.3175C31.8037 56.0531 32.395 54.4188 32.3355 52.7442C32.2759 51.0696 31.5699 49.4794 30.3599 48.2946C29.1498 47.1098 27.5258 46.4185 25.8156 46.3601C24.1054 46.3018 22.4362 46.8809 21.145 47.9804L2.18566 66.5447C1.51379 67.1493 0.973889 67.8808 0.598495 68.6951C0.223101 69.5095 0.0199904 70.3898 0.00140266 71.2831C-0.0171851 72.1764 0.149136 73.0641 0.490342 73.8928C0.831547 74.7214 1.34057 75.4738 1.98674 76.1047C2.6329 76.7355 3.40282 77.2317 4.2501 77.5634C5.09738 77.8951 6.00447 78.0553 6.9167 78.0345C7.82892 78.0137 8.7274 77.8122 9.55797 77.4422C10.3885 77.0723 11.134 76.5415 11.7495 75.8818L11.727 75.8928ZM11.3736 4.03572C10.7724 3.43508 10.0556 2.95704 9.26466 2.62922C8.47369 2.3014 7.62421 2.13031 6.76531 2.12582C5.90641 2.12134 5.05511 2.28354 4.26061 2.60308C3.4661 2.92261 2.74414 3.39313 2.13643 3.98746C1.52871 4.58178 1.0473 5.28813 0.72 6.06569C0.3927 6.84326 0.226002 7.67662 0.229537 8.51763C0.233072 9.35864 0.40677 10.1906 0.740596 10.9655C1.07442 11.7404 1.56176 12.4429 2.17444 13.0323L21.7452 32.2227C22.9279 33.4536 24.5615 34.1741 26.2867 34.2256C28.0119 34.2771 29.6873 33.6554 30.9444 32.4973C32.2014 31.3393 32.9372 29.7397 32.9898 28.0504C33.0424 26.3612 32.4075 24.7207 31.2248 23.4898C31.1351 23.3964 31.0453 23.3031 30.9444 23.2152L11.3736 4.03572Z" fill="#3ACEBC"/>
<path d="M79.9301 66.9841C81.1013 68.1883 81.7453 69.793 81.7246 71.4557C81.7039 73.1185 81.0201 74.7074 79.8193 75.8832C78.6185 77.059 76.9957 77.7285 75.2976 77.7488C73.5995 77.7691 71.9607 77.1385 70.7309 75.9917L37.8606 45.2232C37.2584 44.6336 36.7806 43.9337 36.4547 43.1632C36.1287 42.3928 35.9609 41.5671 35.9609 40.7332C35.9609 39.8993 36.1287 39.0736 36.4547 38.3032C36.7806 37.5328 37.2584 36.8328 37.8606 36.2432H37.8999L70.686 4.12909C71.8687 2.8982 73.5023 2.17776 75.2275 2.12625C76.9527 2.07475 78.6281 2.69641 79.8852 3.85447C81.1423 5.01252 81.8781 6.61212 81.9307 8.30136C81.9833 9.9906 81.3484 11.6311 80.1657 12.862C80.0759 12.9554 79.9806 13.0487 79.8852 13.1366L51.6594 40.7524L79.9301 66.9841Z" fill="white"/>
</svg>
