<svg width="52" height="52" viewBox="0 0 52 52" fill="none" xmlns="http://www.w3.org/2000/svg">
<path d="M13.3061 28.2858C14.576 28.2858 15.6055 27.2564 15.6055 25.9864C15.6055 24.7165 14.576 23.6871 13.3061 23.6871C12.0362 23.6871 11.0067 24.7165 11.0067 25.9864C11.0067 27.2564 12.0362 28.2858 13.3061 28.2858Z" fill="white"/>
<path d="M38.7643 28.2858C40.0343 28.2858 41.0637 27.2564 41.0637 25.9864C41.0637 24.7165 40.0343 23.6871 38.7643 23.6871C37.4944 23.6871 36.465 24.7165 36.465 25.9864C36.465 27.2564 37.4944 28.2858 38.7643 28.2858Z" fill="#3ACEBC"/>
<path d="M26.0894 15.5702C27.3593 15.5702 28.3888 14.5407 28.3888 13.2708C28.3888 12.0009 27.3593 10.9714 26.0894 10.9714C24.8195 10.9714 23.79 12.0009 23.79 13.2708C23.79 14.5407 24.8195 15.5702 26.0894 15.5702Z" fill="white"/>
<path d="M26.0894 41.0286C27.3593 41.0286 28.3888 39.9991 28.3888 38.7292C28.3888 37.4593 27.3593 36.4298 26.0894 36.4298C24.8195 36.4298 23.79 37.4593 23.79 38.7292C23.79 39.9991 24.8195 41.0286 26.0894 41.0286Z" fill="white"/>
<path d="M15.1803 39.4875L22.1623 32.5C22.6292 32.0331 22.8915 31.3999 22.8915 30.7396C22.8915 30.0793 22.6292 29.446 22.1623 28.9792C21.6954 28.5123 21.0622 28.25 20.4019 28.25C19.7416 28.25 19.1084 28.5123 18.6415 28.9792L11.6675 35.9721C11.2007 36.439 10.9384 37.0722 10.9384 37.7325C10.9384 38.3928 11.2007 39.026 11.6675 39.4929C12.1344 39.9598 12.7677 40.2221 13.428 40.2221C14.0882 40.2221 14.7215 39.9598 15.1884 39.4929L15.1803 39.4875ZM15.0503 12.4583C14.828 12.2359 14.564 12.0594 14.2735 11.9389C13.983 11.8184 13.6716 11.7564 13.3571 11.7562C13.0427 11.7561 12.7312 11.8179 12.4406 11.9382C12.15 12.0584 11.8859 12.2347 11.6635 12.457C11.441 12.6793 11.2645 12.9432 11.144 13.2337C11.0236 13.5242 10.9615 13.8356 10.9614 14.1501C10.9613 14.4646 11.0231 14.776 11.1433 15.0666C11.2635 15.3572 11.4398 15.6213 11.6621 15.8437L18.8717 23.0615C19.0916 23.2952 19.3562 23.4823 19.6498 23.6119C19.9434 23.7414 20.26 23.8107 20.5809 23.8155C20.9017 23.8204 21.2203 23.7608 21.5177 23.6403C21.8151 23.5197 22.0853 23.3407 22.3122 23.1138C22.5391 22.8869 22.7181 22.6167 22.8387 22.3193C22.9592 22.0219 23.0188 21.7033 23.0139 21.3825C23.009 21.0616 22.9398 20.745 22.8102 20.4514C22.6807 20.1578 22.4935 19.8932 22.2598 19.6733L15.0503 12.4583Z" fill="#3ACEBC"/>
<path d="M40.3082 36.1373C40.7351 36.5911 40.9686 37.1933 40.9591 37.8163C40.9497 38.4393 40.698 39.0341 40.2574 39.4747C39.8168 39.9152 39.222 40.1669 38.599 40.1764C37.976 40.1859 37.3738 39.9524 36.92 39.5254L24.8084 27.9527C24.5855 27.7308 24.4086 27.467 24.2879 27.1765C24.1672 26.886 24.1051 26.5746 24.1051 26.26C24.1051 25.9454 24.1672 25.634 24.2879 25.3435C24.4086 25.053 24.5855 24.7892 24.8084 24.5673H24.8219L36.8984 12.4881C37.1183 12.2544 37.3829 12.0673 37.6765 11.9377C37.97 11.8082 38.2867 11.7389 38.6075 11.734C38.9284 11.7292 39.247 11.7888 39.5444 11.9093C39.8418 12.0298 40.1119 12.2089 40.3388 12.4358C40.5657 12.6627 40.7448 12.9329 40.8653 13.2303C40.9859 13.5277 41.0455 13.8462 41.0406 14.1671C41.0357 14.488 40.9664 14.8046 40.8369 15.0982C40.7074 15.3918 40.5202 15.6563 40.2865 15.8763L29.8892 26.2708L40.3082 36.1373Z" fill="white"/>
</svg>
