<svg width="1435" height="134" viewBox="0 0 1435 134" fill="none" xmlns="http://www.w3.org/2000/svg">
<rect width="1435" height="134" rx="30" fill="#35373D"/>
<path d="M549.28 54.438H554.106V77.01H566.874V81H549.28V54.438ZM583.036 54.438H587.71L598.312 81H593.41L590.978 74.882H579.73L577.336 81H572.396L583.036 54.438ZM589.648 70.892L585.354 59.606L581.06 70.892H589.648ZM607.649 58.428H599.631V54.438H620.493V58.428H612.475V81H607.649V58.428ZM627.328 54.438H645.302V58.428H632.154V65.724H641.92V69.714H632.154V77.01H645.302V81H627.328V54.438ZM660.217 81.57C658.646 81.57 657.088 81.418 655.543 81.114C654.023 80.8353 652.769 80.4553 651.781 79.974V75.832C653.047 76.44 654.377 76.896 655.771 77.2C657.164 77.504 658.532 77.656 659.875 77.656C661.572 77.656 662.864 77.3393 663.751 76.706C664.637 76.0727 665.081 75.1987 665.081 74.084C665.081 73.2987 664.878 72.6527 664.473 72.146C664.067 71.614 663.472 71.158 662.687 70.778C661.901 70.3727 660.698 69.8533 659.077 69.22C656.594 68.2067 654.795 67.0793 653.681 65.838C652.566 64.5967 652.009 63.0513 652.009 61.202C652.009 59.758 652.401 58.4787 653.187 57.364C653.972 56.2493 655.074 55.388 656.493 54.78C657.911 54.172 659.545 53.868 661.395 53.868C662.915 53.868 664.257 53.9947 665.423 54.248C666.613 54.476 667.779 54.8433 668.919 55.35V59.378C666.715 58.314 664.485 57.782 662.231 57.782C660.609 57.782 659.355 58.086 658.469 58.694C657.582 59.2767 657.139 60.1127 657.139 61.202C657.139 61.9873 657.341 62.6333 657.747 63.14C658.152 63.6213 658.684 64.0393 659.343 64.394C660.027 64.7233 661.243 65.2553 662.991 65.99C664.764 66.7247 666.157 67.4467 667.171 68.156C668.209 68.8653 668.982 69.7013 669.489 70.664C670.021 71.6013 670.287 72.754 670.287 74.122C670.287 76.478 669.438 78.3147 667.741 79.632C666.043 80.924 663.535 81.57 660.217 81.57ZM683.434 58.428H675.416V54.438H696.278V58.428H688.26V81H683.434V58.428ZM734.059 81.57C731.272 81.57 728.802 81.0127 726.649 79.898C724.495 78.758 722.823 77.1493 721.633 75.072C720.442 72.9693 719.847 70.5247 719.847 67.738C719.847 64.9513 720.442 62.5193 721.633 60.442C722.823 58.3393 724.495 56.718 726.649 55.578C728.802 54.438 731.272 53.868 734.059 53.868C737.732 53.868 740.797 54.742 743.255 56.49V61.088C741.051 59.2133 738.125 58.276 734.477 58.276C732.526 58.276 730.816 58.6687 729.347 59.454C727.877 60.214 726.737 61.3033 725.927 62.722C725.116 64.1407 724.711 65.8127 724.711 67.738C724.711 69.6633 725.116 71.3353 725.927 72.754C726.763 74.1727 727.915 75.2747 729.385 76.06C730.854 76.82 732.551 77.2 734.477 77.2C736.351 77.2 738.023 76.972 739.493 76.516C740.962 76.0347 742.317 75.2747 743.559 74.236V78.834C741.228 80.658 738.061 81.57 734.059 81.57ZM751.162 54.438H755.988V77.01H768.756V81H751.162V54.438ZM775.595 54.438H780.421V81H775.595V54.438ZM788.784 54.438H806.758V58.428H793.61V65.724H803.376V69.714H793.61V77.01H806.758V81H788.784V54.438ZM813.996 54.438H818.556L830.982 72.944V54.438H835.808V81H831.248L818.822 62.456V81H813.996V54.438ZM850.679 58.428H842.661V54.438H863.523V58.428H855.505V81H850.679V58.428ZM877.069 81.57C875.498 81.57 873.94 81.418 872.395 81.114C870.875 80.8353 869.621 80.4553 868.633 79.974V75.832C869.9 76.44 871.23 76.896 872.623 77.2C874.016 77.504 875.384 77.656 876.727 77.656C878.424 77.656 879.716 77.3393 880.603 76.706C881.49 76.0727 881.933 75.1987 881.933 74.084C881.933 73.2987 881.73 72.6527 881.325 72.146C880.92 71.614 880.324 71.158 879.539 70.778C878.754 70.3727 877.55 69.8533 875.929 69.22C873.446 68.2067 871.648 67.0793 870.533 65.838C869.418 64.5967 868.861 63.0513 868.861 61.202C868.861 59.758 869.254 58.4787 870.039 57.364C870.824 56.2493 871.926 55.388 873.345 54.78C874.764 54.172 876.398 53.868 878.247 53.868C879.767 53.868 881.11 53.9947 882.275 54.248C883.466 54.476 884.631 54.8433 885.771 55.35V59.378C883.567 58.314 881.338 57.782 879.083 57.782C877.462 57.782 876.208 58.086 875.321 58.694C874.434 59.2767 873.991 60.1127 873.991 61.202C873.991 61.9873 874.194 62.6333 874.599 63.14C875.004 63.6213 875.536 64.0393 876.195 64.394C876.879 64.7233 878.095 65.2553 879.843 65.99C881.616 66.7247 883.01 67.4467 884.023 68.156C885.062 68.8653 885.834 69.7013 886.341 70.664C886.873 71.6013 887.139 72.754 887.139 74.122C887.139 76.478 886.29 78.3147 884.593 79.632C882.896 80.924 880.388 81.57 877.069 81.57Z" fill="white"/>
</svg>
