<svg width="123" height="92" viewBox="0 0 123 92" fill="none" xmlns="http://www.w3.org/2000/svg">
<path d="M84.1589 48.5929C84.1589 45.0375 87.0036 42.1931 90.5594 42.1931C94.1152 42.1931 96.9599 45.0375 96.9599 48.5929C96.9599 52.1484 94.1152 54.9928 90.5594 54.9928C87.0036 54.9928 84.1589 52.0299 84.1589 48.5929Z" fill="white"/>
<path d="M122.799 64.1199C122.562 66.1346 122.325 68.1494 121.732 70.0456C119.954 76.801 116.043 82.9638 109.643 86.4008C100.872 90.9043 90.4411 89.2451 81.6701 85.8082C74.4399 90.9043 74.4399 90.9044 74.4399 90.9044C72.7805 91.971 70.647 90.1932 71.5952 88.4155C69.5803 88.7711 68.9876 86.8748 69.5803 85.3341C67.9209 86.6378 66.4985 84.2675 67.4468 82.8453C68.0394 81.8972 68.9876 80.8305 69.6988 80.0009C59.5054 74.1937 50.2603 67.0828 40.8966 60.0904C46.2303 63.4088 67.5653 74.3122 72.7805 76.564C78.2328 78.9343 83.685 81.3046 89.3744 82.6083C94.1155 83.6749 100.16 84.2675 104.546 81.5416C108.576 79.1713 110.117 74.3122 110.709 69.9271C112.132 60.4459 108.813 49.7795 103.835 41.7205C98.6195 33.3059 90.0855 25.7209 80.3663 23.2321C76.8104 22.284 73.2546 22.284 69.9358 22.8765C62.2315 24.1802 55.2384 28.9208 49.9047 34.8466C42.2004 43.3797 36.8666 53.9276 32.007 64.3569C28.6882 71.3493 24.0657 88.4155 13.1611 81.6601C8.3015 78.5788 5.21978 73.2456 3.08629 68.0309C0.715734 62.4607 -0.943655 54.9942 0.597204 48.9499C3.91598 36.2688 21.6951 47.5277 27.74 51.5573C27.3844 51.4387 13.1611 44.9204 7.94591 50.0166C5.57536 52.3869 5.69389 56.6534 6.04947 59.7348C6.76064 65.305 9.48677 73.6011 14.702 76.6825C21.4581 80.5935 24.8954 68.3864 26.6733 64.1199C29.6365 56.8904 32.4811 49.661 35.7999 42.5501C39.4743 34.7281 43.8598 27.0246 49.9047 20.7433C48.6009 19.2026 46.7044 17.3063 46.5859 15.2916C46.3489 13.0398 48.6009 10.551 50.9714 11.7361C48.2453 8.65471 51.9196 4.03261 55.4755 5.81034C53.8161 3.203 56.4237 -0.115429 59.1498 0.00308665C60.6907 0.00308665 62.2315 1.30675 63.4168 2.13636C66.4985 4.15112 69.5803 6.2844 72.7805 8.29916C102.294 3.67706 125.407 37.2169 122.799 64.1199Z" fill="white"/>
</svg>
