<svg width="44" height="32" viewBox="0 0 44 32" fill="none" xmlns="http://www.w3.org/2000/svg">
<g filter="url(#filter0_d)">
<path d="M41.4208 0C41.2837 0.147146 41.1895 0.251014 41.0867 0.354882C35.8084 5.68677 30.5044 10.9927 25.2518 16.3592C23.4524 18.1942 20.3677 18.1423 18.6282 16.3765C13.3328 10.984 8.00312 5.61752 2.69056 0.242358C2.63058 0.181769 2.57917 0.121179 2.46777 0C15.4664 0 28.4051 0 41.4208 0Z" fill="white"/>
<path d="M2.42493 32C2.8962 31.5239 3.31607 31.1084 3.72736 30.693C7.61753 26.7719 11.5163 22.8509 15.3979 18.9212C15.6549 18.6616 15.8006 18.601 16.0919 18.8953C17.8913 20.7043 20.0678 21.5612 22.6041 21.3708C24.592 21.2236 26.28 20.3927 27.6767 18.9559C28.0795 18.549 28.0795 18.549 28.4736 18.9472C32.6637 23.1625 36.8538 27.3692 41.0524 31.5845C41.1724 31.7057 41.318 31.8009 41.4551 31.9134C41.438 31.9394 41.4209 31.974 41.4037 32C28.4308 32 15.475 32 2.42493 32Z" fill="white"/>
<path d="M0 29.3773C0 20.4706 0 11.5639 0 2.65723C0.197079 2.65723 0.257059 2.80437 0.351315 2.89959C4.56709 7.16683 8.78286 11.4341 13.0072 15.6927C13.2214 15.9091 13.2985 16.0302 13.0329 16.2986C8.77429 20.5831 4.53281 24.8763 0.274197 29.1695C0.205648 29.2474 0.145667 29.36 0 29.3773Z" fill="white"/>
<path d="M44 2.64844C44 11.5638 44 20.4618 44 29.3771C43.82 29.3339 43.7515 29.1954 43.6487 29.1002C39.4415 24.8416 35.2343 20.583 31.0185 16.3417C30.7529 16.0734 30.7529 15.9435 31.0185 15.6752C35.2343 11.4339 39.4415 7.17535 43.6572 2.92542C43.7515 2.83021 43.8286 2.70037 44 2.64844Z" fill="white"/>
</g>
<defs>
<filter id="filter0_d" x="-4" y="0" width="52" height="40" filterUnits="userSpaceOnUse" color-interpolation-filters="sRGB">
<feFlood flood-opacity="0" result="BackgroundImageFix"/>
<feColorMatrix in="SourceAlpha" type="matrix" values="0 0 0 0 0 0 0 0 0 0 0 0 0 0 0 0 0 0 127 0"/>
<feOffset dy="4"/>
<feGaussianBlur stdDeviation="2"/>
<feColorMatrix type="matrix" values="0 0 0 0 0 0 0 0 0 0 0 0 0 0 0 0 0 0 0.25 0"/>
<feBlend mode="normal" in2="BackgroundImageFix" result="effect1_dropShadow"/>
<feBlend mode="normal" in="SourceGraphic" in2="effect1_dropShadow" result="shape"/>
</filter>
</defs>
</svg>
