<svg width="46" height="47" viewBox="0 0 46 47" fill="none" xmlns="http://www.w3.org/2000/svg">
<path d="M0 25.4072C0 23.9791 0 22.5723 0 21.1441C0.0624434 20.9736 0.145701 20.8244 0.166516 20.6539C1.60272 8.93054 10.99 0.255256 22.5629 -0.000526466C32.6579 -0.213678 41.6081 6.28746 44.8136 16.0924C45.438 18.0321 45.667 20.0144 46.0208 21.9968C46.0208 23.1265 46.0208 24.2775 46.0208 25.4072C45.7294 25.8548 45.8543 26.3664 45.7919 26.8566C44.0851 38.4095 34.6353 46.8503 23.229 46.9782C13.4462 47.106 4.78733 40.9673 1.41538 31.5886C0.686878 29.585 0.395475 27.4961 0 25.4072ZM29.952 18.0108C29.8896 18.4797 29.619 18.6076 29.4109 18.7782C26.2679 21.677 23.1249 24.5972 19.9819 27.4748C19.4407 27.965 19.1077 28.4766 19.0869 29.2652C19.0661 30.6507 18.8787 32.0149 18.7955 33.4004C18.7747 33.6562 18.6081 34.0398 18.8995 34.189C19.191 34.3382 19.5032 34.1038 19.7321 33.8906C20.5231 33.1446 21.314 32.3986 22.0633 31.6099C22.5213 31.0983 22.8543 31.0344 23.4371 31.5033C25.019 32.7609 26.6425 33.9759 28.2869 35.1695C29.4317 36.0008 30.2643 35.7024 30.5765 34.2743C31.8462 28.2421 33.095 22.2312 34.3231 16.1777C34.448 15.5596 34.552 14.8775 33.99 14.3872C33.4072 13.8757 32.8036 14.1741 32.2208 14.4085C28.6615 15.8153 25.1231 17.2008 21.5638 18.6076C17.9005 20.0358 14.2579 21.4639 10.6154 22.9346C10.095 23.1478 9.36652 23.3183 9.40814 24.0643C9.44977 24.7464 10.1575 24.8104 10.657 24.9809C12.114 25.4711 13.571 25.8974 15.0072 26.409C15.6317 26.6222 16.152 26.6008 16.7348 26.1958C20.6688 23.6167 24.6443 21.0802 28.5991 18.5437C28.9946 18.2879 29.3484 17.9256 29.952 18.0108Z" fill="white"/>
</svg>
