<svg width="131" height="50" viewBox="0 0 131 50" fill="none" xmlns="http://www.w3.org/2000/svg">
<g clip-path="url(#clip0)">
<path d="M2.66304 41.9176H0.557188C0.487871 41.9171 0.421538 41.8894 0.372674 41.8405C0.323811 41.7916 0.296385 41.7254 0.296387 41.6565V40.5283C0.296387 40.4595 0.323864 40.3935 0.372774 40.3448C0.421683 40.2962 0.488019 40.2688 0.557188 40.2688H6.57344C6.60782 40.2686 6.64191 40.2752 6.67374 40.2881C6.70557 40.3011 6.73451 40.3201 6.7589 40.3443C6.78329 40.3684 6.80264 40.3971 6.81585 40.4286C6.82906 40.4602 6.83586 40.4941 6.83586 40.5283V41.6565C6.83586 41.7257 6.80821 41.7921 6.75899 41.8411C6.70978 41.8901 6.64303 41.9176 6.57344 41.9176H4.46759V49.6036C4.46525 49.6708 4.43768 49.7348 4.3903 49.7828C4.34293 49.8308 4.27919 49.8595 4.21165 49.863H2.92384C2.85531 49.861 2.79015 49.833 2.74168 49.7848C2.6932 49.7366 2.66507 49.6717 2.66304 49.6036V41.9176Z" fill="white"/>
<path d="M10.3316 40.5332C10.3316 40.499 10.3384 40.4651 10.3516 40.4335C10.3648 40.4019 10.3842 40.3732 10.4086 40.3491C10.433 40.325 10.4619 40.3059 10.4937 40.293C10.5256 40.28 10.5596 40.2735 10.594 40.2737H16.1988C16.2331 40.2737 16.267 40.2804 16.2986 40.2934C16.3303 40.3065 16.359 40.3256 16.3832 40.3497C16.4075 40.3738 16.4267 40.4024 16.4398 40.4339C16.4529 40.4653 16.4596 40.4991 16.4596 40.5332V41.6613C16.4596 41.7303 16.4322 41.7965 16.3833 41.8454C16.3345 41.8943 16.2681 41.922 16.1988 41.9224H12.1216V44.1594H15.5233C15.592 44.1614 15.6574 44.1893 15.7061 44.2375C15.7548 44.2857 15.7833 44.3505 15.7858 44.4189V45.5567C15.7853 45.6257 15.7575 45.6917 15.7083 45.7403C15.6592 45.7889 15.5927 45.8162 15.5233 45.8162H12.1216V48.2143H16.1988C16.268 48.2143 16.3343 48.2416 16.3832 48.2903C16.4322 48.339 16.4596 48.405 16.4596 48.4738V49.6019C16.4596 49.6708 16.4322 49.7368 16.3832 49.7854C16.3343 49.8341 16.268 49.8614 16.1988 49.8614H10.594C10.5596 49.8616 10.5256 49.8551 10.4937 49.8421C10.4619 49.8292 10.433 49.8101 10.4086 49.786C10.3842 49.7619 10.3648 49.7332 10.3516 49.7016C10.3384 49.67 10.3316 49.6362 10.3316 49.6019V40.5332Z" fill="white"/>
<path d="M24.721 40.1302C25.3333 40.1143 25.9427 40.2186 26.5144 40.437C27.0861 40.6555 27.609 40.9839 28.0531 41.4035C28.0816 41.4263 28.1048 41.4549 28.1211 41.4875C28.1375 41.52 28.1467 41.5556 28.1481 41.5919C28.1495 41.6283 28.143 41.6645 28.1291 41.6982C28.1153 41.7318 28.0943 41.7621 28.0677 41.787L27.227 42.6509C27.2063 42.6764 27.1802 42.697 27.1505 42.7112C27.1208 42.7254 27.0882 42.7327 27.0553 42.7327C27.0223 42.7327 26.9898 42.7254 26.9601 42.7112C26.9304 42.697 26.9042 42.6764 26.8836 42.6509C26.2964 42.1374 25.5432 41.8514 24.7615 41.8451C22.9991 41.8451 21.6837 43.3117 21.6837 45.0377C21.6837 46.7638 23.0056 48.2014 24.7615 48.2014C25.5335 48.194 26.2785 47.918 26.8674 47.4214C26.9139 47.378 26.9753 47.3538 27.0391 47.3538C27.1029 47.3538 27.1642 47.378 27.2108 47.4214L28.0645 48.2981C28.112 48.349 28.1374 48.4166 28.135 48.4861C28.1325 48.5556 28.1025 48.6213 28.0515 48.6688C27.156 49.5338 25.9529 50.0113 24.7048 49.9968C23.3902 49.9968 22.1294 49.4772 21.1998 48.5523C20.2702 47.6275 19.748 46.3731 19.748 45.0651C19.748 43.7572 20.2702 42.5028 21.1998 41.5779C22.1294 40.6531 23.3902 40.1335 24.7048 40.1335L24.721 40.1302Z" fill="white"/>
<path d="M31.936 40.5332C31.938 40.465 31.9661 40.4002 32.0146 40.3519C32.0631 40.3037 32.1283 40.2757 32.1968 40.2737H33.4781C33.5123 40.2737 33.5463 40.2804 33.5779 40.2934C33.6095 40.3065 33.6383 40.3256 33.6625 40.3497C33.6867 40.3738 33.7059 40.4024 33.719 40.4339C33.7322 40.4653 33.7389 40.4991 33.7389 40.5332V44.1594H38.2292V40.5332C38.2292 40.4991 38.236 40.4653 38.2491 40.4339C38.2622 40.4024 38.2814 40.3738 38.3056 40.3497C38.3298 40.3256 38.3586 40.3065 38.3902 40.2934C38.4218 40.2804 38.4558 40.2737 38.49 40.2737H39.7568C39.8254 40.2757 39.8908 40.3036 39.9395 40.3518C39.9883 40.4 40.0167 40.4648 40.0192 40.5332V49.6036C40.0167 49.6719 39.9883 49.7367 39.9395 49.7849C39.8908 49.8331 39.8254 49.8611 39.7568 49.8631H38.49C38.4208 49.8631 38.3545 49.8357 38.3056 49.7871C38.2567 49.7384 38.2292 49.6724 38.2292 49.6036V45.821H33.7389V49.6036C33.7389 49.6724 33.7114 49.7384 33.6625 49.7871C33.6136 49.8357 33.5473 49.8631 33.4781 49.8631H32.1968C32.1283 49.861 32.0631 49.833 32.0146 49.7848C31.9661 49.7366 31.938 49.6718 31.936 49.6036V40.5332Z" fill="white"/>
<path d="M44.5889 40.3833C44.5918 40.3163 44.6209 40.2531 44.6698 40.2071C44.7188 40.161 44.7839 40.1358 44.8513 40.1367H45.1947L50.9242 46.1917H50.9372V40.5331C50.9372 40.4989 50.944 40.4651 50.9572 40.4335C50.9704 40.4019 50.9898 40.3732 51.0141 40.3491C51.0385 40.325 51.0675 40.3059 51.0993 40.293C51.1311 40.28 51.1652 40.2735 51.1996 40.2737H52.4664C52.5349 40.2757 52.6 40.3037 52.6485 40.3519C52.697 40.4001 52.7251 40.465 52.7272 40.5331V49.7534C52.7246 49.8203 52.6959 49.8835 52.6472 49.9295C52.5985 49.9756 52.5336 50.0009 52.4664 50H52.1424L46.3853 43.7146H46.3724V49.6068C46.3724 49.641 46.3656 49.6748 46.3523 49.7064C46.3391 49.738 46.3198 49.7667 46.2954 49.7908C46.271 49.8149 46.2421 49.834 46.2102 49.847C46.1784 49.8599 46.1443 49.8665 46.1099 49.8662H44.8578C44.7891 49.8642 44.7237 49.8363 44.675 49.7881C44.6263 49.7399 44.5978 49.6751 44.5953 49.6068L44.5889 40.3833Z" fill="white"/>
<path d="M61.5555 40.1302C62.536 40.1274 63.4952 40.4138 64.312 40.9534C65.1288 41.493 65.7664 42.2615 66.1442 43.1616C66.522 44.0617 66.623 45.0531 66.4344 46.0104C66.2459 46.9676 65.7762 47.8477 65.0849 48.5394C64.3935 49.2311 63.5115 49.7032 62.5504 49.8961C61.5894 50.089 60.5924 49.9941 59.6856 49.6232C58.7788 49.2524 58.0028 48.6223 57.456 47.8127C56.9091 47.003 56.6158 46.0502 56.6133 45.0748C56.6103 44.4269 56.7359 43.7849 56.9829 43.1854C57.2298 42.586 57.5933 42.0409 58.0525 41.5815C58.5117 41.1222 59.0575 40.7575 59.6586 40.5084C60.2597 40.2594 60.9044 40.1309 61.5555 40.1302ZM61.5555 48.2127C62.1831 48.2156 62.7973 48.0329 63.3203 47.6878C63.8432 47.3428 64.2514 46.851 64.493 46.2747C64.7345 45.6985 64.7985 45.0639 64.6769 44.4514C64.5554 43.8389 64.2536 43.2761 63.81 42.8346C63.3664 42.393 62.8009 42.0925 62.1854 41.9712C61.5698 41.8499 60.9319 41.9133 60.3526 42.1533C59.7733 42.3933 59.2787 42.7992 58.9317 43.3193C58.5846 43.8395 58.4007 44.4505 58.4032 45.0748C58.4071 45.9062 58.7401 46.7025 59.3303 47.2911C59.9204 47.8798 60.7199 48.2132 61.5555 48.2191V48.2127Z" fill="white"/>
<path d="M70.379 40.5332C70.379 40.4991 70.3858 40.4653 70.3989 40.4339C70.412 40.4024 70.4312 40.3738 70.4554 40.3497C70.4796 40.3256 70.5084 40.3065 70.54 40.2934C70.5717 40.2804 70.6056 40.2737 70.6398 40.2737H71.9066C71.9753 40.2757 72.0406 40.3036 72.0893 40.3518C72.1381 40.4 72.1665 40.4648 72.169 40.5332V48.2191H75.6793C75.7486 48.2191 75.8151 48.2464 75.8642 48.295C75.9134 48.3436 75.9412 48.4096 75.9417 48.4786V49.6068C75.9417 49.641 75.9349 49.6748 75.9217 49.7064C75.9085 49.738 75.8891 49.7667 75.8647 49.7908C75.8403 49.8149 75.8114 49.834 75.7796 49.847C75.7477 49.8599 75.7136 49.8665 75.6793 49.8662H70.6398C70.5707 49.8662 70.5043 49.8389 70.4554 49.7902C70.4065 49.7416 70.379 49.6756 70.379 49.6068V40.5332Z" fill="white"/>
<path d="M83.5552 40.1302C84.5356 40.1277 85.4947 40.4144 86.3113 40.9542C87.1278 41.494 87.7652 42.2626 88.1427 43.1627C88.5203 44.0629 88.621 45.0542 88.4323 46.0114C88.2435 46.9685 87.7737 47.8485 87.0823 48.54C86.3909 49.2315 85.5089 49.7035 84.5479 49.8963C83.5869 50.0891 82.59 49.994 81.6832 49.6231C80.7765 49.2522 80.0007 48.6221 79.4539 47.8125C78.9071 47.0029 78.6139 46.0502 78.6113 45.0748C78.6085 44.4269 78.7343 43.7848 78.9815 43.1853C79.2286 42.5858 79.5923 42.0408 80.0516 41.5814C80.5109 41.1221 81.0568 40.7574 81.658 40.5084C82.2592 40.2594 82.904 40.1309 83.5552 40.1302ZM83.5552 48.2127C84.1827 48.2156 84.7969 48.0329 85.3199 47.6879C85.8429 47.3428 86.2511 46.851 86.4926 46.2748C86.7342 45.6985 86.7982 45.0639 86.6766 44.4514C86.555 43.8389 86.2533 43.2762 85.8096 42.8346C85.366 42.393 84.8006 42.0925 84.185 41.9712C83.5695 41.8499 82.9315 41.9133 82.3523 42.1533C81.773 42.3933 81.2784 42.7992 80.9313 43.3193C80.5843 43.8395 80.4003 44.4505 80.4029 45.0748C80.4063 45.9063 80.7392 46.7029 81.3295 47.2916C81.9197 47.8803 82.7195 48.2136 83.5552 48.2191V48.2127Z" fill="white"/>
<path d="M96.6357 40.1302C97.8721 40.1441 99.0631 40.5955 99.9954 41.4034C100.022 41.4272 100.044 41.4562 100.06 41.4887C100.075 41.5211 100.084 41.5563 100.085 41.5921C100.086 41.628 100.08 41.6637 100.067 41.6972C100.055 41.7307 100.035 41.7612 100.01 41.787L99.1563 42.6782C99.1342 42.7041 99.1068 42.7248 99.0759 42.739C99.045 42.7533 99.0113 42.7606 98.9773 42.7606C98.9432 42.7606 98.9096 42.7533 98.8787 42.739C98.8478 42.7248 98.8203 42.7041 98.7983 42.6782C98.2267 42.168 97.4863 41.8851 96.7184 41.8837C94.998 41.8837 93.6406 43.3487 93.6406 45.0619C93.6354 45.8861 93.9585 46.6787 94.5392 47.2665C95.12 47.8542 95.9111 48.1892 96.7394 48.1982C97.2997 48.1941 97.8538 48.0814 98.3706 47.8662V46.7009H97.2691C97.2355 46.7025 97.202 46.6972 97.1706 46.6855C97.1391 46.6738 97.1103 46.6559 97.0859 46.6329C97.0616 46.6099 97.0421 46.5822 97.0288 46.5515C97.0155 46.5208 97.0085 46.4878 97.0083 46.4544V45.3729C97.007 45.3384 97.0128 45.304 97.0254 45.2718C97.038 45.2396 97.0571 45.2104 97.0816 45.1859C97.1061 45.1614 97.1353 45.1422 97.1676 45.1294C97.1999 45.1167 97.2344 45.1107 97.2691 45.1118H99.9128C99.9801 45.1148 100.044 45.1437 100.09 45.1924C100.136 45.2411 100.162 45.3059 100.161 45.3729V48.8799C100.162 48.9226 100.152 48.9649 100.133 49.003C100.114 49.0412 100.085 49.0742 100.05 49.0991C99.0083 49.6837 97.8321 49.9906 96.6357 49.9903C95.3228 49.9903 94.0637 49.4714 93.1353 48.5478C92.2069 47.6241 91.6854 46.3714 91.6854 45.0651C91.6854 43.7589 92.2069 42.5061 93.1353 41.5824C94.0637 40.6588 95.3228 40.1399 96.6357 40.1399V40.1302Z" fill="white"/>
<path d="M104.249 40.5332C104.252 40.4648 104.28 40.4 104.329 40.3518C104.378 40.3036 104.443 40.2757 104.512 40.2737H105.793C105.861 40.2757 105.927 40.3037 105.975 40.3519C106.024 40.4002 106.052 40.465 106.054 40.5332V49.6036C106.052 49.6718 106.024 49.7366 105.975 49.7848C105.927 49.833 105.861 49.861 105.793 49.8631H104.512C104.443 49.8611 104.378 49.8331 104.329 49.7849C104.28 49.7367 104.252 49.6719 104.249 49.6036V40.5332Z" fill="white"/>
<path d="M110.625 40.5332C110.625 40.4991 110.632 40.4653 110.645 40.4339C110.658 40.4024 110.677 40.3738 110.701 40.3497C110.726 40.3256 110.754 40.3065 110.786 40.2934C110.818 40.2804 110.852 40.2737 110.886 40.2737H116.491C116.525 40.2735 116.559 40.28 116.591 40.293C116.623 40.3059 116.652 40.325 116.676 40.3491C116.701 40.3732 116.72 40.4019 116.733 40.4335C116.746 40.4651 116.753 40.499 116.753 40.5332V41.6613C116.753 41.7306 116.725 41.797 116.676 41.8459C116.627 41.8949 116.56 41.9224 116.491 41.9224H112.42V44.1594H115.822C115.89 44.1614 115.956 44.1893 116.004 44.2375C116.053 44.2857 116.082 44.3505 116.084 44.4189V45.5567C116.084 45.6257 116.056 45.6917 116.007 45.7403C115.957 45.7889 115.891 45.8162 115.822 45.8162H112.42V48.2143H116.496C116.565 48.2143 116.631 48.2416 116.681 48.2902C116.73 48.3388 116.758 48.4048 116.758 48.4738V49.6019C116.758 49.6362 116.751 49.67 116.738 49.7016C116.725 49.7332 116.705 49.7619 116.681 49.786C116.657 49.8101 116.628 49.8292 116.596 49.8421C116.564 49.8551 116.53 49.8616 116.496 49.8614H110.891C110.822 49.8614 110.755 49.8341 110.706 49.7854C110.657 49.7368 110.63 49.6708 110.63 49.6019L110.625 40.5332Z" fill="white"/>
<path d="M120.221 48.5205L120.717 47.6712C120.74 47.6327 120.771 47.5994 120.807 47.5734C120.844 47.5475 120.886 47.5293 120.93 47.5202C120.974 47.5111 121.019 47.5113 121.063 47.5206C121.107 47.53 121.149 47.5483 121.185 47.5745C121.255 47.6164 122.369 48.4238 123.265 48.4238C123.981 48.4238 124.517 47.9581 124.517 47.3698C124.517 46.6704 123.926 46.1917 122.769 45.7259C121.473 45.2054 120.178 44.3834 120.178 42.7669C120.178 41.5469 121.086 40.1367 123.275 40.1367C124.265 40.156 125.226 40.4759 126.029 41.0537C126.097 41.1052 126.143 41.1803 126.159 41.2641C126.174 41.348 126.157 41.4345 126.111 41.5066L125.588 42.2866C125.478 42.4478 125.272 42.5606 125.102 42.4478C124.992 42.3801 123.945 41.6952 123.187 41.6952C122.403 41.6952 121.976 42.2157 121.976 42.6541C121.976 43.2988 122.486 43.7355 123.595 44.1884C124.932 44.7219 126.474 45.5164 126.474 47.2844C126.474 48.6962 125.249 49.9968 123.307 49.9968C121.572 49.9968 120.553 49.191 120.278 48.9283C120.166 48.8074 120.098 48.7397 120.221 48.5205Z" fill="white"/>
<path d="M40.983 31.1372L48.5625 23.5962C48.8177 23.3481 49.021 23.052 49.1604 22.7252C49.2998 22.3983 49.3727 22.0472 49.3747 21.6922C49.3768 21.3371 49.3079 20.9852 49.1723 20.6567C49.0366 20.3283 48.8368 20.03 48.5844 19.779C48.332 19.5279 48.032 19.3293 47.7019 19.1944C47.3717 19.0596 47.018 18.9913 46.6611 18.9935C46.3042 18.9956 45.9513 19.0683 45.6229 19.2071C45.2944 19.346 44.9969 19.5483 44.7476 19.8024L37.1698 27.3433C36.9096 27.5902 36.7016 27.8864 36.5581 28.2144C36.4146 28.5425 36.3384 28.8957 36.3341 29.2535C36.3299 29.6112 36.3975 29.9662 36.5332 30.2975C36.6688 30.6288 36.8697 30.9298 37.1239 31.1828C37.3782 31.4358 37.6807 31.6356 38.0138 31.7706C38.3468 31.9055 38.7036 31.9728 39.0631 31.9686C39.4227 31.9643 39.7778 31.8886 40.1075 31.7458C40.4372 31.603 40.7349 31.3961 40.983 31.1372ZM40.3982 0.838048C39.8903 0.344772 39.2075 0.0705737 38.4977 0.0749103C37.7879 0.0792469 37.1085 0.361769 36.6067 0.861214C36.1049 1.36066 35.8212 2.03677 35.8172 2.74293C35.8131 3.44909 36.089 4.12838 36.585 4.6335L44.7039 12.7095C44.9515 12.9713 45.2495 13.1809 45.5801 13.326C45.9107 13.471 46.2673 13.5484 46.6286 13.5537C46.9898 13.559 47.3485 13.492 47.6833 13.3566C48.018 13.2213 48.322 13.0205 48.5773 12.766C48.8325 12.5115 49.0337 12.2086 49.169 11.8753C49.3043 11.542 49.3709 11.185 49.3648 10.8255C49.3588 10.4661 49.2802 10.1115 49.1337 9.78289C48.9872 9.45425 48.7759 9.15824 48.5122 8.91244L40.3982 0.838048Z" fill="#3ACEBC"/>
<path d="M67.0372 27.3434C67.2925 27.5915 67.4957 27.8876 67.6351 28.2144C67.7746 28.5413 67.8474 28.8924 67.8495 29.2475C67.8515 29.6025 67.7827 29.9544 67.647 30.2829C67.5114 30.6113 67.3115 30.9096 67.0591 31.1607C66.8067 31.4117 66.5068 31.6103 66.1766 31.7452C65.8465 31.88 65.4927 31.9483 65.1358 31.9461C64.779 31.944 64.4261 31.8713 64.0976 31.7325C63.7692 31.5936 63.4717 31.3913 63.2224 31.1372L50.1937 18.1747C49.6882 17.6715 49.4042 16.9892 49.4042 16.2777C49.4042 15.5663 49.6882 14.884 50.1937 14.3808L50.2099 14.3647L63.8072 0.834861C64.313 0.331553 64.9991 0.0487976 65.7146 0.0487976C66.43 0.0487976 67.1161 0.331553 67.622 0.834861C68.1279 1.33817 68.4121 2.0208 68.4121 2.73259C68.4121 3.44437 68.1279 4.127 67.622 4.63031L55.9151 16.2777L67.0372 27.3434Z" fill="white"/>
<path d="M90.2275 8.91247C89.7415 9.41953 89.4741 10.0956 89.4825 10.7962C89.4909 11.4968 89.7743 12.1663 90.2723 12.6617C90.7702 13.1572 91.4432 13.4392 92.1473 13.4475C92.8515 13.4558 93.531 13.1898 94.0407 12.7063L102.16 4.6303C102.656 4.12517 102.931 3.44589 102.927 2.73972C102.923 2.03356 102.64 1.35746 102.138 0.85801C101.636 0.358565 100.957 0.0760426 100.247 0.0717059C99.5371 0.0673693 98.8542 0.341568 98.3463 0.834844L90.2275 8.91247Z" fill="#3ACEBC"/>
<path d="M109.342 0.0274048C108.627 0.0274048 107.941 0.31012 107.435 0.813356C106.929 1.31659 106.645 1.99913 106.645 2.71081C106.645 3.42249 106.929 4.10503 107.435 4.60827C107.941 5.1115 108.627 5.39422 109.342 5.39422H117.746C118.106 5.40299 118.464 5.34009 118.798 5.20922C119.133 5.07835 119.438 4.88215 119.696 4.63218C119.953 4.38221 120.158 4.08352 120.298 3.75368C120.437 3.42385 120.509 3.06954 120.509 2.71162C120.509 2.35369 120.437 1.99939 120.298 1.66955C120.158 1.33972 119.953 1.04102 119.696 0.791054C119.438 0.541084 119.133 0.344888 118.798 0.214017C118.464 0.0831467 118.106 0.0202454 117.746 0.0290164L109.342 0.0274048Z" fill="white"/>
<path d="M112.582 26.6197C111.867 26.6197 111.181 26.9024 110.675 27.4057C110.169 27.9089 109.885 28.5914 109.885 29.3031C109.885 30.0148 110.169 30.6974 110.675 31.2006C111.181 31.7038 111.867 31.9865 112.582 31.9865H128.275C128.635 31.9953 128.993 31.9324 129.328 31.8015C129.662 31.6707 129.967 31.4745 130.225 31.2245C130.482 30.9745 130.687 30.6758 130.827 30.346C130.966 30.0162 131.038 29.6619 131.038 29.3039C131.038 28.946 130.966 28.5917 130.827 28.2619C130.687 27.932 130.482 27.6333 130.225 27.3834C129.967 27.1334 129.662 26.9372 129.328 26.8063C128.993 26.6755 128.635 26.6126 128.275 26.6213L112.582 26.6197Z" fill="white"/>
<path d="M71.7025 27.3433C71.4473 27.5915 71.244 27.8875 71.1046 28.2144C70.9652 28.5412 70.8923 28.8924 70.8903 29.2474C70.8882 29.6025 70.957 29.9544 71.0927 30.2828C71.2284 30.6112 71.4282 30.9096 71.6806 31.1606C71.933 31.4116 72.233 31.6103 72.5631 31.7452C72.8933 31.88 73.247 31.9483 73.6039 31.9461C73.9608 31.9439 74.3137 31.8713 74.6421 31.7325C74.9706 31.5936 75.2681 31.3913 75.5173 31.1372L88.546 18.1746C89.0515 17.6714 89.3355 16.9891 89.3355 16.2777C89.3355 15.5663 89.0515 14.884 88.546 14.3808L88.5331 14.3679L74.9261 0.830013C74.6753 0.580906 74.3776 0.383387 74.0501 0.248734C73.7226 0.11408 73.3716 0.0449287 73.0172 0.045228C72.6628 0.0455273 72.312 0.115271 71.9847 0.250478C71.6574 0.385685 71.36 0.583706 71.1097 0.833236C70.8593 1.08277 70.6607 1.37892 70.5254 1.70478C70.3901 2.03065 70.3206 2.37984 70.3209 2.73243C70.3212 3.08502 70.3913 3.4341 70.5272 3.75974C70.6631 4.08537 70.8621 4.38119 71.1129 4.63029L82.8246 16.2777L71.7025 27.3433Z" fill="white"/>
<path d="M131 2.67536C131 3.03232 130.928 3.38569 130.789 3.71474C130.65 4.04379 130.446 4.34191 130.19 4.59161L110.651 24.0379L103.511 31.1372C103.26 31.3861 102.963 31.5835 102.636 31.7181C102.31 31.8528 101.959 31.9221 101.606 31.9221C101.073 31.9215 100.552 31.7639 100.109 31.4691C99.6658 31.1743 99.3205 30.7556 99.1165 30.2657C98.9125 29.7759 98.859 29.2368 98.9626 28.7167C99.0663 28.1966 99.3225 27.7187 99.6989 27.3434L119.785 7.35883L126.388 0.796166C126.891 0.294773 127.573 0.0124712 128.285 0.0112894H128.295V7.7919e-06C129.01 -0.00170524 129.697 0.279097 130.204 0.780731C130.711 1.28236 130.997 1.9638 131 2.67536Z" fill="#3ACEBC"/>
<path d="M1.37525 27.3434C1.10696 27.588 0.891212 27.8841 0.740992 28.2139C0.590772 28.5437 0.509188 28.9003 0.501153 29.2623C0.493118 29.6243 0.558797 29.9842 0.694237 30.3202C0.829677 30.6563 1.03207 30.9616 1.28924 31.2178C1.54641 31.474 1.85303 31.6758 2.19064 31.8109C2.52825 31.9461 2.88987 32.0119 3.25371 32.0044C3.61756 31.9969 3.97611 31.9161 4.30778 31.7671C4.63944 31.6181 4.93736 31.4038 5.1836 31.1372L18.2123 18.1746C18.7178 17.6715 19.0018 16.9891 19.0018 16.2777C19.0018 15.5663 18.7178 14.884 18.2123 14.3808L18.1977 14.3647L4.60368 0.834844C4.09577 0.341568 3.41289 0.0673693 2.70313 0.0717059C1.99336 0.0760426 1.31393 0.358565 0.812143 0.85801C0.31036 1.35746 0.0266844 2.03356 0.0226271 2.73972C0.0185698 3.44588 0.294458 4.12517 0.790469 4.63029L12.4958 16.2777L1.37525 27.3434Z" fill="#3ACEBC"/>
<path d="M28.2426 29.258C28.2426 27.7004 26.9734 26.4376 25.4078 26.4376C23.8422 26.4376 22.573 27.7004 22.573 29.258C22.573 30.8157 23.8422 32.0784 25.4078 32.0784C26.9734 32.0784 28.2426 30.8157 28.2426 29.258Z" fill="white"/>
</g>
<defs>
<clipPath id="clip0">
<rect width="131" height="50" fill="white"/>
</clipPath>
</defs>
</svg>
