<svg width="726" height="366" viewBox="0 0 726 366" fill="none" xmlns="http://www.w3.org/2000/svg">
<path opacity="0.5" d="M363.597 3.14746H362.698V362.853H363.597V3.14746Z" fill="#3ACEBC"/>
<path opacity="0.2" d="M381.133 2.69775H380.233V363.302H381.133V2.69775Z" fill="#3ACEBC"/>
<path opacity="0.2" d="M399.208 2.69775H398.309V363.302H399.208V2.69775Z" fill="#3ACEBC"/>
<path opacity="0.2" d="M417.193 2.69775H416.294V363.302H417.193V2.69775Z" fill="#3ACEBC"/>
<path opacity="0.2" d="M435.268 2.69775H434.369V363.302H435.268V2.69775Z" fill="#3ACEBC"/>
<path opacity="0.5" d="M453.254 2.69775H452.354V363.302H453.254V2.69775Z" fill="#3ACEBC"/>
<path opacity="0.2" d="M471.329 2.69775H470.43V363.302H471.329V2.69775Z" fill="#3ACEBC"/>
<path opacity="0.2" d="M489.314 2.69775H488.415V363.302H489.314V2.69775Z" fill="#3ACEBC"/>
<path opacity="0.2" d="M507.389 2.69775H506.49V363.302H507.389V2.69775Z" fill="#3ACEBC"/>
<path opacity="0.2" d="M525.374 2.69775H524.475V363.302H525.374V2.69775Z" fill="#3ACEBC"/>
<path opacity="0.5" d="M543.45 2.69775H542.55V363.302H543.45V2.69775Z" fill="#3ACEBC"/>
<path opacity="0.2" d="M561.435 2.69775H560.536V363.302H561.435V2.69775Z" fill="#3ACEBC"/>
<path opacity="0.2" d="M579.51 2.69775H578.611V363.302H579.51V2.69775Z" fill="#3ACEBC"/>
<path opacity="0.2" d="M597.495 2.69775H596.596V363.302H597.495V2.69775Z" fill="#3ACEBC"/>
<path opacity="0.2" d="M615.571 2.69775H614.671V363.302H615.571V2.69775Z" fill="#3ACEBC"/>
<path opacity="0.5" d="M633.556 2.69775H632.657V363.302H633.556V2.69775Z" fill="#3ACEBC"/>
<path opacity="0.2" d="M651.631 2.69775H650.731V363.302H651.631V2.69775Z" fill="#3ACEBC"/>
<path opacity="0.2" d="M669.616 2.69775H668.717V363.302H669.616V2.69775Z" fill="#3ACEBC"/>
<path opacity="0.2" d="M687.691 2.69775H686.792V363.302H687.691V2.69775Z" fill="#3ACEBC"/>
<path opacity="0.2" d="M705.677 2.69775H704.777V363.302H705.677V2.69775Z" fill="#3ACEBC"/>
<path opacity="0.5" d="M723.302 3.14746H722.403V362.853H723.302V3.14746Z" fill="#3ACEBC"/>
<path opacity="0.5" d="M722.853 2.69775H363.147V3.59702H722.853V2.69775Z" fill="#3ACEBC"/>
<path opacity="0.2" d="M723.302 20.2334H362.698V21.1327H723.302V20.2334Z" fill="#3ACEBC"/>
<path opacity="0.2" d="M723.302 38.3086H362.698V39.2079H723.302V38.3086Z" fill="#3ACEBC"/>
<path opacity="0.2" d="M723.302 56.2939H362.698V57.1932H723.302V56.2939Z" fill="#3ACEBC"/>
<path opacity="0.2" d="M723.302 74.3691H362.698V75.2684H723.302V74.3691Z" fill="#3ACEBC"/>
<path opacity="0.5" d="M723.302 92.3542H362.698V93.2535H723.302V92.3542Z" fill="#3ACEBC"/>
<path opacity="0.2" d="M723.302 110.429H362.698V111.329H723.302V110.429Z" fill="#3ACEBC"/>
<path opacity="0.2" d="M723.302 128.415H362.698V129.314H723.302V128.415Z" fill="#3ACEBC"/>
<path opacity="0.2" d="M723.302 146.49H362.698V147.389H723.302V146.49Z" fill="#3ACEBC"/>
<path opacity="0.2" d="M723.302 164.475H362.698V165.374H723.302V164.475Z" fill="#3ACEBC"/>
<path opacity="0.5" d="M723.302 182.55H362.698V183.45H723.302V182.55Z" fill="#3ACEBC"/>
<path opacity="0.2" d="M723.302 200.536H362.698V201.435H723.302V200.536Z" fill="#3ACEBC"/>
<path opacity="0.2" d="M723.302 218.611H362.698V219.51H723.302V218.611Z" fill="#3ACEBC"/>
<path opacity="0.2" d="M723.302 236.596H362.698V237.495H723.302V236.596Z" fill="#3ACEBC"/>
<path opacity="0.2" d="M723.302 254.671H362.698V255.571H723.302V254.671Z" fill="#3ACEBC"/>
<path opacity="0.5" d="M723.302 272.656H362.698V273.556H723.302V272.656Z" fill="#3ACEBC"/>
<path opacity="0.2" d="M723.302 290.732H362.698V291.631H723.302V290.732Z" fill="#3ACEBC"/>
<path opacity="0.2" d="M723.302 308.717H362.698V309.616H723.302V308.717Z" fill="#3ACEBC"/>
<path opacity="0.2" d="M723.302 326.792H362.698V327.691H723.302V326.792Z" fill="#3ACEBC"/>
<path opacity="0.2" d="M723.302 344.777H362.698V345.677H723.302V344.777Z" fill="#3ACEBC"/>
<path opacity="0.5" d="M722.853 362.403H363.147V363.302H722.853V362.403Z" fill="#3ACEBC"/>
<path d="M363.597 0H362.698V6.29484H363.597V0Z" fill="#3ACEBC"/>
<path d="M366.295 2.69775H360V3.59702H366.295V2.69775Z" fill="#3ACEBC"/>
<path d="M723.302 0H722.403V6.29484H723.302V0Z" fill="#3ACEBC"/>
<path d="M726 2.69775H719.705V3.59702H726V2.69775Z" fill="#3ACEBC"/>
<path d="M363.597 89.9263H362.698V96.2211H363.597V89.9263Z" fill="#3ACEBC"/>
<path d="M366.295 92.624H360V93.5233H366.295V92.624Z" fill="#3ACEBC"/>
<path d="M723.302 89.9263H722.403V96.2211H723.302V89.9263Z" fill="#3ACEBC"/>
<path d="M726 92.624H719.705V93.5233H726V92.624Z" fill="#3ACEBC"/>
<path d="M363.597 179.853H362.698V186.147H363.597V179.853Z" fill="#3ACEBC"/>
<path d="M366.295 182.55H360V183.45H366.295V182.55Z" fill="#3ACEBC"/>
<path d="M723.302 179.853H722.403V186.147H723.302V179.853Z" fill="#3ACEBC"/>
<path d="M726 182.55H719.705V183.45H726V182.55Z" fill="#3ACEBC"/>
<path d="M363.597 269.779H362.698V276.074H363.597V269.779Z" fill="#3ACEBC"/>
<path d="M366.295 272.477H360V273.376H366.295V272.477Z" fill="#3ACEBC"/>
<path d="M723.302 269.779H722.403V276.074H723.302V269.779Z" fill="#3ACEBC"/>
<path d="M726 272.477H719.705V273.376H726V272.477Z" fill="#3ACEBC"/>
<path d="M363.597 359.705H362.698V366H363.597V359.705Z" fill="#3ACEBC"/>
<path d="M366.295 362.403H360V363.302H366.295V362.403Z" fill="#3ACEBC"/>
<path d="M453.523 0H452.624V6.29484H453.523V0Z" fill="#3ACEBC"/>
<path d="M456.221 2.69775H449.926V3.59702H456.221V2.69775Z" fill="#3ACEBC"/>
<path d="M453.523 89.9263H452.624V96.2211H453.523V89.9263Z" fill="#3ACEBC"/>
<path d="M456.221 92.624H449.926V93.5233H456.221V92.624Z" fill="#3ACEBC"/>
<path d="M453.523 179.853H452.624V186.147H453.523V179.853Z" fill="#3ACEBC"/>
<path d="M456.221 182.55H449.926V183.45H456.221V182.55Z" fill="#3ACEBC"/>
<path d="M453.523 269.779H452.624V276.074H453.523V269.779Z" fill="#3ACEBC"/>
<path d="M456.221 272.477H449.926V273.376H456.221V272.477Z" fill="#3ACEBC"/>
<path d="M453.523 359.705H452.624V366H453.523V359.705Z" fill="#3ACEBC"/>
<path d="M456.221 362.403H449.926V363.302H456.221V362.403Z" fill="#3ACEBC"/>
<path d="M543.45 0H542.55V6.29484H543.45V0Z" fill="#3ACEBC"/>
<path d="M546.147 2.69775H539.853V3.59702H546.147V2.69775Z" fill="#3ACEBC"/>
<path d="M543.45 89.9263H542.55V96.2211H543.45V89.9263Z" fill="#3ACEBC"/>
<path d="M546.147 92.624H539.853V93.5233H546.147V92.624Z" fill="#3ACEBC"/>
<path d="M543.45 179.853H542.55V186.147H543.45V179.853Z" fill="#3ACEBC"/>
<path d="M546.147 182.55H539.853V183.45H546.147V182.55Z" fill="#3ACEBC"/>
<path d="M543.45 269.779H542.55V276.074H543.45V269.779Z" fill="#3ACEBC"/>
<path d="M546.147 272.477H539.853V273.376H546.147V272.477Z" fill="#3ACEBC"/>
<path d="M543.45 359.705H542.55V366H543.45V359.705Z" fill="#3ACEBC"/>
<path d="M546.147 362.403H539.853V363.302H546.147V362.403Z" fill="#3ACEBC"/>
<path d="M633.376 0H632.477V6.29484H633.376V0Z" fill="#3ACEBC"/>
<path d="M636.074 2.69775H629.779V3.59702H636.074V2.69775Z" fill="#3ACEBC"/>
<path d="M633.376 89.9263H632.477V96.2211H633.376V89.9263Z" fill="#3ACEBC"/>
<path d="M636.074 92.624H629.779V93.5233H636.074V92.624Z" fill="#3ACEBC"/>
<path d="M633.376 179.853H632.477V186.147H633.376V179.853Z" fill="#3ACEBC"/>
<path d="M636.074 182.55H629.779V183.45H636.074V182.55Z" fill="#3ACEBC"/>
<path d="M633.376 269.779H632.477V276.074H633.376V269.779Z" fill="#3ACEBC"/>
<path d="M636.074 272.477H629.779V273.376H636.074V272.477Z" fill="#3ACEBC"/>
<path d="M633.376 359.705H632.477V366H633.376V359.705Z" fill="#3ACEBC"/>
<path d="M636.074 362.403H629.779V363.302H636.074V362.403Z" fill="#3ACEBC"/>
<path d="M723.302 359.705H722.403V366H723.302V359.705Z" fill="#3ACEBC"/>
<path d="M726 362.403H719.705V363.302H726V362.403Z" fill="#3ACEBC"/>
<path d="M408.56 47.6609H407.661V48.5602H408.56V47.6609Z" fill="#3ACEBC"/>
<path d="M498.487 47.6609H497.587V48.5602H498.487V47.6609Z" fill="#3ACEBC"/>
<path d="M588.413 47.6609H587.514V48.5602H588.413V47.6609Z" fill="#3ACEBC"/>
<path d="M678.339 47.6609H677.44V48.5602H678.339V47.6609Z" fill="#3ACEBC"/>
<path d="M408.56 137.587H407.661V138.486H408.56V137.587Z" fill="#3ACEBC"/>
<path d="M498.487 137.587H497.587V138.486H498.487V137.587Z" fill="#3ACEBC"/>
<path d="M588.413 137.587H587.514V138.486H588.413V137.587Z" fill="#3ACEBC"/>
<path d="M678.339 137.587H677.44V138.486H678.339V137.587Z" fill="#3ACEBC"/>
<path d="M408.56 227.513H407.661V228.413H408.56V227.513Z" fill="#3ACEBC"/>
<path d="M498.487 227.513H497.587V228.413H498.487V227.513Z" fill="#3ACEBC"/>
<path d="M588.413 227.513H587.514V228.413H588.413V227.513Z" fill="#3ACEBC"/>
<path d="M678.339 227.513H677.44V228.413H678.339V227.513Z" fill="#3ACEBC"/>
<path d="M408.56 317.44H407.661V318.339H408.56V317.44Z" fill="#3ACEBC"/>
<path d="M498.487 317.44H497.587V318.339H498.487V317.44Z" fill="#3ACEBC"/>
<path d="M588.413 317.44H587.514V318.339H588.413V317.44Z" fill="#3ACEBC"/>
<path d="M678.339 317.44H677.44V318.339H678.339V317.44Z" fill="#3ACEBC"/>
<path d="M633 184L456 93H633V184Z" stroke="#3ACEBC"/>
<path opacity="0.5" d="M3.59702 3.14746H2.69775V362.853H3.59702V3.14746Z" fill="#3ACEBC"/>
<path opacity="0.2" d="M21.1327 2.69775H20.2334V363.302H21.1327V2.69775Z" fill="#3ACEBC"/>
<path opacity="0.2" d="M39.2079 2.69775H38.3086V363.302H39.2079V2.69775Z" fill="#3ACEBC"/>
<path opacity="0.2" d="M57.1932 2.69775H56.2939V363.302H57.1932V2.69775Z" fill="#3ACEBC"/>
<path opacity="0.2" d="M75.2684 2.69775H74.3691V363.302H75.2684V2.69775Z" fill="#3ACEBC"/>
<path opacity="0.5" d="M93.2538 2.69775H92.3545V363.302H93.2538V2.69775Z" fill="#3ACEBC"/>
<path opacity="0.2" d="M111.329 2.69775H110.43V363.302H111.329V2.69775Z" fill="#3ACEBC"/>
<path opacity="0.2" d="M129.314 2.69775H128.415V363.302H129.314V2.69775Z" fill="#3ACEBC"/>
<path opacity="0.2" d="M147.389 2.69775H146.49V363.302H147.389V2.69775Z" fill="#3ACEBC"/>
<path opacity="0.2" d="M165.374 2.69775H164.475V363.302H165.374V2.69775Z" fill="#3ACEBC"/>
<path opacity="0.5" d="M183.45 2.69775H182.55V363.302H183.45V2.69775Z" fill="#3ACEBC"/>
<path opacity="0.2" d="M201.435 2.69775H200.536V363.302H201.435V2.69775Z" fill="#3ACEBC"/>
<path opacity="0.2" d="M219.51 2.69775H218.611V363.302H219.51V2.69775Z" fill="#3ACEBC"/>
<path opacity="0.2" d="M237.495 2.69775H236.596V363.302H237.495V2.69775Z" fill="#3ACEBC"/>
<path opacity="0.2" d="M255.571 2.69775H254.671V363.302H255.571V2.69775Z" fill="#3ACEBC"/>
<path opacity="0.5" d="M273.556 2.69775H272.657V363.302H273.556V2.69775Z" fill="#3ACEBC"/>
<path opacity="0.2" d="M291.631 2.69775H290.731V363.302H291.631V2.69775Z" fill="#3ACEBC"/>
<path opacity="0.2" d="M309.616 2.69775H308.717V363.302H309.616V2.69775Z" fill="#3ACEBC"/>
<path opacity="0.2" d="M327.691 2.69775H326.792V363.302H327.691V2.69775Z" fill="#3ACEBC"/>
<path opacity="0.2" d="M345.677 2.69775H344.777V363.302H345.677V2.69775Z" fill="#3ACEBC"/>
<path opacity="0.5" d="M363.302 3.14746H362.403V362.853H363.302V3.14746Z" fill="#3ACEBC"/>
<path opacity="0.5" d="M362.853 2.69775H3.14746V3.59702H362.853V2.69775Z" fill="#3ACEBC"/>
<path opacity="0.2" d="M363.302 20.2334H2.69775V21.1327H363.302V20.2334Z" fill="#3ACEBC"/>
<path opacity="0.2" d="M363.302 38.3086H2.69775V39.2079H363.302V38.3086Z" fill="#3ACEBC"/>
<path opacity="0.2" d="M363.302 56.2939H2.69775V57.1932H363.302V56.2939Z" fill="#3ACEBC"/>
<path opacity="0.2" d="M363.302 74.3691H2.69775V75.2684H363.302V74.3691Z" fill="#3ACEBC"/>
<path opacity="0.5" d="M363.302 92.3542H2.69775V93.2535H363.302V92.3542Z" fill="#3ACEBC"/>
<path opacity="0.2" d="M363.302 110.429H2.69775V111.329H363.302V110.429Z" fill="#3ACEBC"/>
<path opacity="0.2" d="M363.302 128.415H2.69775V129.314H363.302V128.415Z" fill="#3ACEBC"/>
<path opacity="0.2" d="M363.302 146.49H2.69775V147.389H363.302V146.49Z" fill="#3ACEBC"/>
<path opacity="0.2" d="M363.302 164.475H2.69775V165.374H363.302V164.475Z" fill="#3ACEBC"/>
<path opacity="0.5" d="M363.302 182.55H2.69775V183.45H363.302V182.55Z" fill="#3ACEBC"/>
<path opacity="0.2" d="M363.302 200.536H2.69775V201.435H363.302V200.536Z" fill="#3ACEBC"/>
<path opacity="0.2" d="M363.302 218.611H2.69775V219.51H363.302V218.611Z" fill="#3ACEBC"/>
<path opacity="0.2" d="M363.302 236.596H2.69775V237.495H363.302V236.596Z" fill="#3ACEBC"/>
<path opacity="0.2" d="M363.302 254.671H2.69775V255.571H363.302V254.671Z" fill="#3ACEBC"/>
<path opacity="0.5" d="M363.302 272.656H2.69775V273.556H363.302V272.656Z" fill="#3ACEBC"/>
<path opacity="0.2" d="M363.302 290.732H2.69775V291.631H363.302V290.732Z" fill="#3ACEBC"/>
<path opacity="0.2" d="M363.302 308.717H2.69775V309.616H363.302V308.717Z" fill="#3ACEBC"/>
<path opacity="0.2" d="M363.302 326.792H2.69775V327.691H363.302V326.792Z" fill="#3ACEBC"/>
<path opacity="0.2" d="M363.302 344.777H2.69775V345.677H363.302V344.777Z" fill="#3ACEBC"/>
<path opacity="0.5" d="M362.853 362.403H3.14746V363.302H362.853V362.403Z" fill="#3ACEBC"/>
<path d="M3.59702 0H2.69775V6.29484H3.59702V0Z" fill="#3ACEBC"/>
<path d="M6.29484 2.69775H0V3.59702H6.29484V2.69775Z" fill="#3ACEBC"/>
<path d="M363.302 0H362.403V6.29484H363.302V0Z" fill="#3ACEBC"/>
<path d="M366 2.69775H359.705V3.59702H366V2.69775Z" fill="#3ACEBC"/>
<path d="M3.59702 89.9263H2.69775V96.2211H3.59702V89.9263Z" fill="#3ACEBC"/>
<path d="M6.29484 92.624H0V93.5233H6.29484V92.624Z" fill="#3ACEBC"/>
<path d="M363.302 89.9263H362.403V96.2211H363.302V89.9263Z" fill="#3ACEBC"/>
<path d="M366 92.624H359.705V93.5233H366V92.624Z" fill="#3ACEBC"/>
<path d="M3.59702 179.853H2.69775V186.147H3.59702V179.853Z" fill="#3ACEBC"/>
<path d="M6.29484 182.55H0V183.45H6.29484V182.55Z" fill="#3ACEBC"/>
<path d="M363.302 179.853H362.403V186.147H363.302V179.853Z" fill="#3ACEBC"/>
<path d="M366 182.55H359.705V183.45H366V182.55Z" fill="#3ACEBC"/>
<path d="M3.59702 269.779H2.69775V276.074H3.59702V269.779Z" fill="#3ACEBC"/>
<path d="M6.29484 272.477H0V273.376H6.29484V272.477Z" fill="#3ACEBC"/>
<path d="M363.302 269.779H362.403V276.074H363.302V269.779Z" fill="#3ACEBC"/>
<path d="M366 272.477H359.705V273.376H366V272.477Z" fill="#3ACEBC"/>
<path d="M3.59702 359.705H2.69775V366H3.59702V359.705Z" fill="#3ACEBC"/>
<path d="M6.29484 362.403H0V363.302H6.29484V362.403Z" fill="#3ACEBC"/>
<path d="M93.5233 0H92.624V6.29484H93.5233V0Z" fill="#3ACEBC"/>
<path d="M96.2211 2.69775H89.9263V3.59702H96.2211V2.69775Z" fill="#3ACEBC"/>
<path d="M93.5233 89.9263H92.624V96.2211H93.5233V89.9263Z" fill="#3ACEBC"/>
<path d="M96.2211 92.624H89.9263V93.5233H96.2211V92.624Z" fill="#3ACEBC"/>
<path d="M93.5233 179.853H92.624V186.147H93.5233V179.853Z" fill="#3ACEBC"/>
<path d="M96.2211 182.55H89.9263V183.45H96.2211V182.55Z" fill="#3ACEBC"/>
<path d="M93.5233 269.779H92.624V276.074H93.5233V269.779Z" fill="#3ACEBC"/>
<path d="M96.2211 272.477H89.9263V273.376H96.2211V272.477Z" fill="#3ACEBC"/>
<path d="M93.5233 359.705H92.624V366H93.5233V359.705Z" fill="#3ACEBC"/>
<path d="M96.2211 362.403H89.9263V363.302H96.2211V362.403Z" fill="#3ACEBC"/>
<path d="M183.45 0H182.55V6.29484H183.45V0Z" fill="#3ACEBC"/>
<path d="M186.147 2.69775H179.853V3.59702H186.147V2.69775Z" fill="#3ACEBC"/>
<path d="M183.45 89.9263H182.55V96.2211H183.45V89.9263Z" fill="#3ACEBC"/>
<path d="M186.147 92.624H179.853V93.5233H186.147V92.624Z" fill="#3ACEBC"/>
<path d="M183.45 179.853H182.55V186.147H183.45V179.853Z" fill="#3ACEBC"/>
<path d="M186.147 182.55H179.853V183.45H186.147V182.55Z" fill="#3ACEBC"/>
<path d="M183.45 269.779H182.55V276.074H183.45V269.779Z" fill="#3ACEBC"/>
<path d="M186.147 272.477H179.853V273.376H186.147V272.477Z" fill="#3ACEBC"/>
<path d="M183.45 359.705H182.55V366H183.45V359.705Z" fill="#3ACEBC"/>
<path d="M186.147 362.403H179.853V363.302H186.147V362.403Z" fill="#3ACEBC"/>
<path d="M273.376 0H272.477V6.29484H273.376V0Z" fill="#3ACEBC"/>
<path d="M276.074 2.69775H269.779V3.59702H276.074V2.69775Z" fill="#3ACEBC"/>
<path d="M273.376 89.9263H272.477V96.2211H273.376V89.9263Z" fill="#3ACEBC"/>
<path d="M276.074 92.624H269.779V93.5233H276.074V92.624Z" fill="#3ACEBC"/>
<path d="M273.376 179.853H272.477V186.147H273.376V179.853Z" fill="#3ACEBC"/>
<path d="M276.074 182.55H269.779V183.45H276.074V182.55Z" fill="#3ACEBC"/>
<path d="M273.376 269.779H272.477V276.074H273.376V269.779Z" fill="#3ACEBC"/>
<path d="M276.074 272.477H269.779V273.376H276.074V272.477Z" fill="#3ACEBC"/>
<path d="M273.376 359.705H272.477V366H273.376V359.705Z" fill="#3ACEBC"/>
<path d="M276.074 362.403H269.779V363.302H276.074V362.403Z" fill="#3ACEBC"/>
<path d="M363.302 359.705H362.403V366H363.302V359.705Z" fill="#3ACEBC"/>
<path d="M366 362.403H359.705V363.302H366V362.403Z" fill="#3ACEBC"/>
<path d="M48.5604 47.6609H47.6611V48.5602H48.5604V47.6609Z" fill="#3ACEBC"/>
<path d="M138.487 47.6609H137.587V48.5602H138.487V47.6609Z" fill="#3ACEBC"/>
<path d="M228.413 47.6609H227.514V48.5602H228.413V47.6609Z" fill="#3ACEBC"/>
<path d="M318.339 47.6609H317.44V48.5602H318.339V47.6609Z" fill="#3ACEBC"/>
<path d="M48.5604 137.587H47.6611V138.486H48.5604V137.587Z" fill="#3ACEBC"/>
<path d="M138.487 137.587H137.587V138.486H138.487V137.587Z" fill="#3ACEBC"/>
<path d="M228.413 137.587H227.514V138.486H228.413V137.587Z" fill="#3ACEBC"/>
<path d="M318.339 137.587H317.44V138.486H318.339V137.587Z" fill="#3ACEBC"/>
<path d="M48.5604 227.513H47.6611V228.413H48.5604V227.513Z" fill="#3ACEBC"/>
<path d="M138.487 227.513H137.587V228.413H138.487V227.513Z" fill="#3ACEBC"/>
<path d="M228.413 227.513H227.514V228.413H228.413V227.513Z" fill="#3ACEBC"/>
<path d="M318.339 227.513H317.44V228.413H318.339V227.513Z" fill="#3ACEBC"/>
<path d="M48.5604 317.44H47.6611V318.339H48.5604V317.44Z" fill="#3ACEBC"/>
<path d="M138.487 317.44H137.587V318.339H138.487V317.44Z" fill="#3ACEBC"/>
<path d="M228.413 317.44H227.514V318.339H228.413V317.44Z" fill="#3ACEBC"/>
<path d="M318.339 317.44H317.44V318.339H318.339V317.44Z" fill="#3ACEBC"/>
<path d="M92 276L274 92H92V276Z" stroke="#3ACEBC"/>
</svg>
