<svg width="32" height="32" viewBox="0 0 32 32" fill="none" xmlns="http://www.w3.org/2000/svg">
<path d="M3.30603 18.2858C4.57594 18.2858 5.6054 17.2564 5.6054 15.9864C5.6054 14.7165 4.57594 13.6871 3.30603 13.6871C2.03612 13.6871 1.00665 14.7165 1.00665 15.9864C1.00665 17.2564 2.03612 18.2858 3.30603 18.2858Z" fill="white"/>
<path d="M28.7644 18.2858C30.0343 18.2858 31.0638 17.2564 31.0638 15.9864C31.0638 14.7165 30.0343 13.6871 28.7644 13.6871C27.4945 13.6871 26.465 14.7165 26.465 15.9864C26.465 17.2564 27.4945 18.2858 28.7644 18.2858Z" fill="#3ACEBC"/>
<path d="M16.0894 5.57022C17.3593 5.57022 18.3887 4.54075 18.3887 3.27084C18.3887 2.00093 17.3593 0.971466 16.0894 0.971466C14.8194 0.971466 13.79 2.00093 13.79 3.27084C13.79 4.54075 14.8194 5.57022 16.0894 5.57022Z" fill="white"/>
<path d="M16.0894 31.0285C17.3593 31.0285 18.3887 29.9991 18.3887 28.7292C18.3887 27.4592 17.3593 26.4298 16.0894 26.4298C14.8194 26.4298 13.79 27.4592 13.79 28.7292C13.79 29.9991 14.8194 31.0285 16.0894 31.0285Z" fill="white"/>
<path d="M5.18019 29.4875L12.1623 22.5C12.6292 22.0331 12.8915 21.3999 12.8915 20.7396C12.8915 20.0793 12.6292 19.446 12.1623 18.9792C11.6954 18.5123 11.0621 18.25 10.4019 18.25C9.74157 18.25 9.10833 18.5123 8.64144 18.9792L1.66748 25.9721C1.20059 26.439 0.938293 27.0722 0.938293 27.7325C0.938293 28.3928 1.20059 29.026 1.66748 29.4929C2.13437 29.9598 2.76761 30.2221 3.4279 30.2221C4.08818 30.2221 4.72142 29.9598 5.18831 29.4929L5.18019 29.4875ZM5.05019 2.45833C4.8279 2.23586 4.56397 2.05935 4.27347 1.93889C3.98296 1.81842 3.67158 1.75635 3.35708 1.75623C3.04259 1.7561 2.73116 1.81792 2.44056 1.93815C2.14996 2.05839 1.88589 2.23468 1.66342 2.45697C1.44095 2.67926 1.26445 2.94319 1.14398 3.2337C1.02351 3.5242 0.961445 3.83559 0.961319 4.15008C0.961193 4.46457 1.02301 4.776 1.14325 5.0666C1.26348 5.3572 1.43978 5.62127 1.66207 5.84374L8.87165 13.0615C9.09155 13.2952 9.35614 13.4823 9.64973 13.6119C9.94333 13.7414 10.2599 13.8107 10.5808 13.8155C10.9017 13.8204 11.2202 13.7608 11.5176 13.6403C11.815 13.5197 12.0852 13.3407 12.3121 13.1138C12.539 12.8869 12.718 12.6167 12.8386 12.3193C12.9591 12.0219 13.0187 11.7033 13.0139 11.3825C13.009 11.0616 12.9397 10.745 12.8102 10.4514C12.6806 10.1578 12.4935 9.89323 12.2598 9.67332L5.05019 2.45833Z" fill="#3ACEBC"/>
<path d="M30.3082 26.1373C30.7351 26.5911 30.9686 27.1933 30.9591 27.8163C30.9497 28.4393 30.698 29.0341 30.2574 29.4747C29.8168 29.9152 29.222 30.1669 28.599 30.1764C27.976 30.1859 27.3738 29.9524 26.92 29.5254L14.8084 17.9527C14.5855 17.7308 14.4086 17.467 14.2879 17.1765C14.1672 16.886 14.1051 16.5746 14.1051 16.26C14.1051 15.9454 14.1672 15.634 14.2879 15.3435C14.4086 15.053 14.5855 14.7892 14.8084 14.5673H14.8219L26.8984 2.48812C27.1183 2.25442 27.3829 2.06725 27.6765 1.93772C27.97 1.80818 28.2867 1.73892 28.6075 1.73404C28.9284 1.72916 29.247 1.78876 29.5444 1.90931C29.8418 2.02985 30.1119 2.20888 30.3388 2.43579C30.5657 2.6627 30.7448 2.93287 30.8653 3.23026C30.9859 3.52766 31.0455 3.84623 31.0406 4.16709C31.0357 4.48795 30.9664 4.80457 30.8369 5.09816C30.7074 5.39175 30.5202 5.65635 30.2865 5.87625L19.8892 16.2708L30.3082 26.1373Z" fill="white"/>
</svg>
